<svg width="13" height="14" viewBox="0 0 13 14" fill="none" xmlns="http://www.w3.org/2000/svg">
<path d="M11.7577 12.9626V11.6271C11.7577 10.9187 11.4763 10.2394 10.9754 9.73845C10.4745 9.23756 9.79515 8.95616 9.08677 8.95616H8.41904C8.24194 8.95616 8.0721 8.88581 7.94688 8.76058C7.82166 8.63536 7.75131 8.46552 7.75131 8.28842V4.94976C7.75131 4.59557 7.6106 4.25589 7.36016 4.00544C7.10971 3.75499 6.77003 3.61429 6.41584 3.61429C6.06165 3.61429 5.72197 3.75499 5.47152 4.00544C5.22107 4.25589 5.08037 4.59557 5.08037 4.94976V10.9594L3.47781 8.82261C3.35342 8.65675 3.19212 8.52213 3.00668 8.42941C2.82124 8.33669 2.61677 8.28842 2.40944 8.28842H2.11964C1.54206 8.28842 1.07397 8.7565 1.07397 9.33409C1.07397 9.52373 1.12539 9.71003 1.22288 9.87229L3.07717 12.9626M6.41584 1.61109V0.943359V1.61109ZM10.4222 5.61749H11.09H10.4222ZM1.74171 5.61749H2.40944H1.74171ZM3.30621 2.50786L2.83412 2.03577L3.30621 2.50786ZM9.52547 2.50786L9.99756 2.03577L9.52547 2.50786Z" fill="#4CAF4F"/>
<path d="M11.7577 12.9626V11.6271C11.7577 10.9187 11.4763 10.2394 10.9754 9.73845C10.4745 9.23756 9.79515 8.95616 9.08677 8.95616H8.41904C8.24194 8.95616 8.0721 8.88581 7.94688 8.76058C7.82166 8.63536 7.75131 8.46552 7.75131 8.28842V4.94976C7.75131 4.59557 7.6106 4.25589 7.36016 4.00544C7.10971 3.75499 6.77003 3.61429 6.41584 3.61429V3.61429C6.06165 3.61429 5.72197 3.75499 5.47152 4.00544C5.22107 4.25589 5.08037 4.59557 5.08037 4.94976V10.9594L3.47781 8.82261C3.35342 8.65675 3.19212 8.52213 3.00668 8.42941C2.82124 8.33669 2.61677 8.28842 2.40944 8.28842H2.11964C1.54206 8.28842 1.07397 8.7565 1.07397 9.33409C1.07397 9.52373 1.12539 9.71003 1.22288 9.87229L3.07717 12.9626M6.41584 1.61109V0.943359M10.4222 5.61749H11.09M1.74171 5.61749H2.40944M3.30621 2.50786L2.83412 2.03577M9.52547 2.50786L9.99756 2.03577" stroke="#4CAF4F" stroke-width="0.667733" stroke-linecap="round" stroke-linejoin="round"/>
</svg>
