<svg width="22" height="20" viewBox="0 0 22 20" fill="none" xmlns="http://www.w3.org/2000/svg">
<path d="M21.8406 13.4074C21.8406 16.7264 19.15 19.417 15.831 19.417L6.81658 19.417C5.89464 19.417 5.14725 18.6696 5.14725 17.7477L5.14725 6.39619C5.14725 4.5523 6.64202 3.05753 8.48592 3.05753L20.1712 3.05753C21.0932 3.05753 21.8406 3.80492 21.8406 4.72686L21.8406 13.4074Z" fill="#E8F5E9"/>
<path d="M8.14861 4.05957C6.9563 4.05957 5.98564 5.0391 5.98564 6.23649C5.98564 6.99398 6.37461 7.66281 6.96198 8.05267C6.25256 8.28987 5.63871 8.73321 5.18848 9.31319C4.93956 9.12172 4.66142 8.96774 4.36158 8.8574C4.81627 8.51985 5.11339 7.97761 5.11339 7.36818C5.11339 6.35264 4.29205 5.5213 3.28267 5.5213C2.27329 5.5213 1.45195 6.35264 1.45195 7.36818C1.45195 7.97796 1.74932 8.52044 2.20439 8.858C0.999603 9.30258 0.13916 10.4666 0.13916 11.8364V12.7987C0.139283 12.872 0.168626 12.9423 0.220653 12.994C0.27268 13.0457 0.343079 13.0746 0.416435 13.0743H4.63817C4.6484 13.0755 4.65863 13.0761 4.66886 13.0759H11.6286C11.6388 13.0761 11.6492 13.0755 11.6593 13.0743H15.8813C16.0331 13.0737 16.156 12.9506 16.1564 12.7987V11.8364C16.1564 10.4666 15.2974 9.30258 14.0933 8.85787C14.5483 8.52045 14.8457 7.97783 14.8457 7.36805C14.8457 6.35252 14.0244 5.52117 13.015 5.52117C12.0057 5.52117 11.1843 6.35252 11.1843 7.36805C11.1843 7.97748 11.4815 8.51981 11.9362 8.85728C11.6358 8.96786 11.3575 9.12234 11.1082 9.31429C10.6582 8.73396 10.0452 8.29001 9.33582 8.05267C9.92303 7.66281 10.3122 6.99398 10.3122 6.23649C10.3122 5.0391 9.341 4.05957 8.14868 4.05957H8.14861ZM8.14861 4.6119C9.04036 4.6119 9.75925 5.33562 9.75925 6.23649C9.75925 7.13033 9.05157 7.84701 8.16969 7.8585C8.16267 7.8585 8.15576 7.85751 8.14861 7.85751C8.14146 7.85751 8.13468 7.8585 8.12753 7.8585C7.24566 7.84715 6.53845 7.13036 6.53845 6.23649C6.53845 5.33549 7.25674 4.6119 8.14849 4.6119H8.14861ZM3.2827 6.0736C3.99026 6.0736 4.56109 6.64787 4.56109 7.36815C4.56109 8.0836 3.99764 8.65541 3.29675 8.66317C3.29206 8.66317 3.2875 8.66268 3.28269 8.66268C3.27801 8.66268 3.27345 8.66317 3.26864 8.66317C2.56774 8.6554 2.0043 8.08347 2.0043 7.36815C2.0043 6.64791 2.57513 6.0736 3.28268 6.0736H3.2827ZM13.0148 6.0736C13.7224 6.0736 14.2932 6.64787 14.2932 7.36815C14.2932 8.0836 13.7298 8.65541 13.0289 8.66317C13.0242 8.66317 13.0196 8.66268 13.0148 8.66268C13.0101 8.66268 13.0056 8.66317 13.0008 8.66317C12.2999 8.6554 11.7364 8.08347 11.7364 7.36815C11.7364 6.64791 12.3073 6.0736 13.0148 6.0736H13.0148ZM8.12746 8.4108C8.13449 8.41092 8.1414 8.41179 8.14855 8.41179C8.15558 8.41179 8.16248 8.4108 8.16963 8.4108C9.93821 8.42214 11.3536 9.84971 11.3536 11.6367L11.3535 12.5235H4.94387V11.6367C4.94387 9.84955 6.35886 8.42216 8.12721 8.4108H8.12746ZM3.26156 9.21613C3.26858 9.21626 3.27549 9.21712 3.28264 9.21712C3.28979 9.21712 3.29657 9.21613 3.30372 9.21613C3.90191 9.22094 4.44784 9.42721 4.88254 9.77229C4.57149 10.3227 4.3916 10.9579 4.3916 11.6369V12.5215H0.691272V11.8364C0.691272 10.384 1.83318 9.22747 3.26149 9.21601L3.26156 9.21613ZM12.9937 9.21613C13.0008 9.21626 13.0076 9.21712 13.0148 9.21712C13.0219 9.21712 13.0287 9.21613 13.0359 9.21613C14.4642 9.22748 15.6061 10.3842 15.6061 11.8365V12.5215H11.9039L11.9037 11.6369C11.9037 10.9583 11.7243 10.3235 11.4139 9.77327C11.8487 9.42769 12.395 9.22093 12.9937 9.21613H12.9937Z" fill="#103E13"/>
</svg>
