<svg width="15" height="12" viewBox="0 0 15 12" fill="none" xmlns="http://www.w3.org/2000/svg">
<path d="M1.39106 3.44913V3.61607H1.558H13.5772H13.7441V3.44913V2.69794C13.7441 2.32161 13.5946 1.9607 13.3285 1.6946C13.0624 1.4285 12.7015 1.279 12.3252 1.279H2.81C2.43367 1.279 2.07276 1.4285 1.80666 1.6946C1.54056 1.9607 1.39106 2.32161 1.39106 2.69794V3.44913ZM13.7441 4.45073V4.2838H13.5772H1.558H1.39106V4.45073V9.20833C1.39106 9.58466 1.54056 9.94557 1.80666 10.2117C2.07276 10.4778 2.43367 10.6273 2.81 10.6273H12.3252C12.7015 10.6273 13.0624 10.4778 13.3285 10.2117C13.5946 9.94557 13.7441 9.58466 13.7441 9.20833V4.45073ZM0.72333 2.69794C0.72333 2.14452 0.943174 1.61377 1.3345 1.22244C1.72583 0.831114 2.25658 0.611269 2.81 0.611269H12.3252C12.8786 0.611269 13.4094 0.831114 13.8007 1.22244C14.192 1.61377 14.4119 2.14452 14.4119 2.69794V9.20833C14.4119 9.76175 14.192 10.2925 13.8007 10.6838C13.4094 11.0752 12.8786 11.295 12.3252 11.295H2.81C2.25658 11.295 1.72583 11.0752 1.3345 10.6838C0.943174 10.2925 0.72333 9.76175 0.72333 9.20833V2.69794ZM10.0716 7.62247H11.574C11.6625 7.62247 11.7475 7.65764 11.8101 7.72025C11.8727 7.78287 11.9079 7.86779 11.9079 7.95633C11.9079 8.04488 11.8727 8.1298 11.8101 8.19241C11.7475 8.25502 11.6625 8.2902 11.574 8.2902H10.0716C9.98305 8.2902 9.89812 8.25502 9.83551 8.19241C9.7729 8.1298 9.73773 8.04488 9.73773 7.95633C9.73773 7.86779 9.7729 7.78287 9.83551 7.72025C9.89813 7.65764 9.98305 7.62247 10.0716 7.62247Z" fill="#4CAF4F" stroke="#4CAF4F" stroke-width="0.333867"/>
</svg>
