<svg width="23" height="20" viewBox="0 0 23 20" fill="none" xmlns="http://www.w3.org/2000/svg">
<path d="M22.2346 13.4074C22.2346 16.7264 19.544 19.417 16.225 19.417L7.21063 19.417C6.28868 19.417 5.54129 18.6696 5.54129 17.7477L5.54129 6.39619C5.54129 4.5523 7.03606 3.05753 8.87996 3.05753L20.5653 3.05753C21.4872 3.05753 22.2346 3.80492 22.2346 4.72686L22.2346 13.4074Z" fill="#E8F5E9"/>
<path d="M9.51967 7.06781C9.4155 7.06781 9.33081 6.98326 9.33081 6.87895V6.558C9.33081 6.45383 9.41536 6.36914 9.51967 6.36914C9.62384 6.36914 9.70853 6.45369 9.70853 6.558V6.87895C9.70853 6.98326 9.62385 7.06781 9.51967 7.06781Z" fill="#103E13"/>
<path d="M8.72572 7.06781C8.62155 7.06781 8.53687 6.98326 8.53687 6.87895V6.558C8.53687 6.45383 8.62142 6.36914 8.72572 6.36914C8.8299 6.36914 8.91458 6.45369 8.91458 6.558V6.87895C8.91445 6.98326 8.83003 7.06781 8.72572 7.06781Z" fill="#103E13"/>
<path d="M7.93178 7.06781C7.82761 7.06781 7.74292 6.98326 7.74292 6.87895V6.558C7.74292 6.45383 7.82747 6.36914 7.93178 6.36914C8.03595 6.36914 8.12064 6.45369 8.12064 6.558V6.87895C8.12064 6.98326 8.03609 7.06781 7.93178 7.06781Z" fill="#103E13"/>
<path d="M9.51967 8.38018C9.4155 8.38018 9.33081 8.29563 9.33081 8.19132V7.8705C9.33081 7.76633 9.41536 7.68164 9.51967 7.68164C9.62384 7.68164 9.70853 7.76619 9.70853 7.8705V8.19132C9.70853 8.29563 9.62385 8.38018 9.51967 8.38018Z" fill="#103E13"/>
<path d="M8.72572 8.38018C8.62155 8.38018 8.53687 8.29563 8.53687 8.19132V7.8705C8.53687 7.76633 8.62142 7.68164 8.72572 7.68164C8.8299 7.68164 8.91458 7.76619 8.91458 7.8705V8.19132C8.91445 8.29563 8.83003 8.38018 8.72572 8.38018Z" fill="#103E13"/>
<path d="M7.93178 8.38018C7.82761 8.38018 7.74292 8.29563 7.74292 8.19132V7.8705C7.74292 7.76633 7.82747 7.68164 7.93178 7.68164C8.03595 7.68164 8.12064 7.76619 8.12064 7.8705V8.19132C8.12064 8.29563 8.03609 8.38018 7.93178 8.38018Z" fill="#103E13"/>
<path d="M9.51967 9.69281C9.4155 9.69281 9.33081 9.60826 9.33081 9.50395V9.183C9.33081 9.07883 9.41536 8.99414 9.51967 8.99414C9.62384 8.99414 9.70853 9.07869 9.70853 9.183V9.50395C9.70853 9.60826 9.62385 9.69281 9.51967 9.69281Z" fill="#103E13"/>
<path d="M8.72572 9.69281C8.62155 9.69281 8.53687 9.60826 8.53687 9.50395V9.183C8.53687 9.07883 8.62142 8.99414 8.72572 8.99414C8.8299 8.99414 8.91458 9.07869 8.91458 9.183V9.50395C8.91445 9.60826 8.83003 9.69281 8.72572 9.69281Z" fill="#103E13"/>
<path d="M7.93178 9.69281C7.82761 9.69281 7.74292 9.60826 7.74292 9.50395V9.183C7.74292 9.07883 7.82747 8.99414 7.93178 8.99414C8.03595 8.99414 8.12064 9.07869 8.12064 9.183V9.50395C8.12064 9.60826 8.03609 9.69281 7.93178 9.69281Z" fill="#103E13"/>
<path d="M9.51967 11.0053C9.4155 11.0053 9.33081 10.9208 9.33081 10.8165V10.4955C9.33081 10.3913 9.41536 10.3066 9.51967 10.3066C9.62384 10.3066 9.70853 10.3912 9.70853 10.4955V10.8165C9.70853 10.9208 9.62385 11.0053 9.51967 11.0053Z" fill="#103E13"/>
<path d="M8.72572 11.0053C8.62155 11.0053 8.53687 10.9208 8.53687 10.8165V10.4955C8.53687 10.3913 8.62142 10.3066 8.72572 10.3066C8.8299 10.3066 8.91458 10.3912 8.91458 10.4955V10.8165C8.91445 10.9208 8.83003 11.0053 8.72572 11.0053Z" fill="#103E13"/>
<path d="M7.93178 11.0053C7.82761 11.0053 7.74292 10.9208 7.74292 10.8165V10.4955C7.74292 10.3913 7.82747 10.3066 7.93178 10.3066C8.03595 10.3066 8.12064 10.3912 8.12064 10.4955V10.8165C8.12064 10.9208 8.03609 11.0053 7.93178 11.0053Z" fill="#103E13"/>
<path d="M9.51967 12.3177C9.4155 12.3177 9.33081 12.2331 9.33081 12.1288V11.808C9.33081 11.7038 9.41536 11.6191 9.51967 11.6191C9.62384 11.6191 9.70853 11.7037 9.70853 11.808V12.1288C9.70853 12.233 9.62385 12.3177 9.51967 12.3177Z" fill="#103E13"/>
<path d="M8.72572 12.3177C8.62155 12.3177 8.53687 12.2331 8.53687 12.1288V11.808C8.53687 11.7038 8.62142 11.6191 8.72572 11.6191C8.8299 11.6191 8.91458 11.7037 8.91458 11.808V12.1288C8.91445 12.233 8.83003 12.3177 8.72572 12.3177Z" fill="#103E13"/>
<path d="M7.93178 12.3177C7.82761 12.3177 7.74292 12.2331 7.74292 12.1288L7.74305 11.808C7.74305 11.7038 7.8276 11.6191 7.93191 11.6191C8.03609 11.6191 8.12077 11.7037 8.12077 11.808V12.1288C8.12064 12.233 8.03609 12.3177 7.93178 12.3177Z" fill="#103E13"/>
<path d="M2.53654 13.6238C2.53654 13.7279 2.62109 13.8126 2.7254 13.8126H14.2263C14.3305 13.8126 14.4152 13.7281 14.4152 13.6238C14.4152 13.5196 14.3307 13.4349 14.2263 13.4349H13.8772V8.01249C13.8772 7.90832 13.7927 7.82363 13.6884 7.82363L10.6049 7.82376V3.91447C10.6049 3.84836 10.5704 3.78725 10.514 3.75301C10.4578 3.71864 10.3874 3.71653 10.329 3.74695L6.82324 5.57219C6.76068 5.60472 6.7217 5.66926 6.7217 5.73972V9.1544H3.32894C3.22476 9.1544 3.14008 9.23895 3.14008 9.34326V13.4349H2.72497C2.6208 13.4348 2.53638 13.5194 2.53638 13.6237L2.53654 13.6238ZM10.6049 10.6841H13.4997V13.4351L10.6049 13.4349V10.6841ZM10.6049 9.37171H13.4997V10.3065L10.6049 10.3064V9.37171ZM10.6049 8.20128H13.4997V8.99426H10.6049V8.20128ZM7.09922 5.85439L10.2271 4.22578V13.4348H7.09922V5.85439ZM4.45139 11.9265C4.45139 11.5346 4.76194 11.2156 5.14374 11.2156C5.52553 11.2156 5.83622 11.5344 5.83622 11.9265V13.435H4.45139V11.9265ZM3.51778 9.53206H6.72165V13.4349H6.21393V11.9264C6.21393 11.3263 5.73402 10.8379 5.14374 10.8379C4.55372 10.8379 4.07382 11.3261 4.07382 11.9264V13.4349H3.51778V9.53206Z" fill="#103E13"/>
</svg>
