<svg width="17" height="11" viewBox="0 0 17 11" fill="none" xmlns="http://www.w3.org/2000/svg">
<path d="M11.0139 1.6761C10.7698 1.67566 10.5267 1.70943 10.2919 1.77641L10.2919 1.7764L10.29 1.77697C10.2158 1.79912 10.1378 1.80628 10.0608 1.79802C9.98373 1.78977 9.90909 1.76627 9.8412 1.72889L9.76069 1.87512L9.8412 1.72889C9.77332 1.69152 9.71355 1.64101 9.66537 1.58031C9.6172 1.51961 9.58158 1.44994 9.56058 1.37534C9.53959 1.30074 9.53365 1.22271 9.54311 1.1458C9.55256 1.06889 9.57722 0.99462 9.61565 0.927328C9.65409 0.860035 9.70552 0.801059 9.76696 0.753835C9.8284 0.706611 9.89862 0.672082 9.97354 0.652257L9.97355 0.652285L9.97654 0.651432C10.3138 0.555411 10.6629 0.506989 11.0135 0.507573L11.0143 0.507571C11.8023 0.505283 12.5718 0.745902 13.2182 1.19667C13.8645 1.64744 14.3562 2.28644 14.6264 3.02669C14.8965 3.76694 14.9319 4.57246 14.7278 5.33356C14.5237 6.09467 14.09 6.77439 13.4858 7.28017L13.282 7.45071L13.5241 7.56026C14.5168 8.00949 15.371 8.71643 15.998 9.60759L15.9987 9.60862C16.0432 9.67094 16.075 9.74149 16.092 9.81618C16.1091 9.89086 16.1111 9.96819 16.098 10.0437C16.0849 10.1191 16.0569 10.1913 16.0157 10.2558C15.9744 10.3204 15.9208 10.3761 15.8578 10.4198L15.8578 10.4198L15.8559 10.4211C15.7584 10.4908 15.6415 10.5281 15.5218 10.5277C15.4281 10.5272 15.3359 10.5043 15.2528 10.4611C15.1697 10.4178 15.0981 10.3554 15.0439 10.2791C14.5886 9.63328 13.9851 9.10618 13.2839 8.74205C12.5826 8.37789 11.8042 8.18737 11.014 8.1865H11.0138C10.8589 8.1865 10.7102 8.12495 10.6007 8.01537C10.4911 7.9058 10.4295 7.75719 10.4295 7.60224C10.4295 7.44728 10.4911 7.29867 10.6007 7.1891C10.7102 7.07953 10.8589 7.01797 11.0138 7.01797C11.7222 7.01797 12.4016 6.73657 12.9024 6.23567C13.4033 5.73478 13.6847 5.05541 13.6847 4.34704C13.6847 3.63866 13.4033 2.9593 12.9024 2.4584C12.4016 1.95753 11.7223 1.67614 11.0139 1.6761ZM11.0139 1.6761C11.014 1.6761 11.0141 1.67611 11.0141 1.67611L11.0138 1.84304V1.6761C11.0139 1.6761 11.0139 1.6761 11.0139 1.6761ZM8.38357 7.28043L8.1808 7.45101L8.42221 7.56026C9.41489 8.00949 10.2691 8.71643 10.8961 9.60759L10.8959 9.60771L10.901 9.61425C10.9497 9.67665 10.9852 9.74829 11.0054 9.82482L11.1668 9.78227L11.0054 9.82482C11.0256 9.90136 11.03 9.9812 11.0184 10.0595C11.0068 10.1378 10.9794 10.2129 10.9378 10.2803C10.8963 10.3477 10.8415 10.4059 10.7768 10.4515C10.7121 10.4971 10.6388 10.529 10.5613 10.5454C10.4839 10.5618 10.4039 10.5622 10.3263 10.5468C10.2487 10.5313 10.175 10.5002 10.1097 10.4554C10.0445 10.4106 9.98902 10.353 9.9467 10.2862L9.94686 10.2861L9.94226 10.2795C9.48796 9.63244 8.88454 9.10428 8.18303 8.73966C7.48152 8.37504 6.70253 8.18469 5.91191 8.18469C5.1213 8.18469 4.34231 8.37504 3.6408 8.73966C2.93929 9.10428 2.33587 9.63244 1.88157 10.2795L1.8812 10.28C1.8278 10.3567 1.75659 10.4193 1.67369 10.4625C1.59078 10.5056 1.49865 10.528 1.4052 10.5277L1.40417 10.5277C1.28431 10.5281 1.16736 10.4908 1.06985 10.4211L1.06905 10.4206C0.942652 10.3314 0.856806 10.1956 0.830337 10.0432C0.803867 9.89079 0.838934 9.73408 0.927848 9.60747C1.55479 8.71637 2.40898 8.00947 3.40162 7.56026L3.64303 7.45101L3.44026 7.28043C2.83762 6.77347 2.40545 6.09345 2.20234 5.33257C1.99923 4.57169 2.03501 3.76675 2.30482 3.02689C2.57464 2.28704 3.06543 1.64804 3.71068 1.19654C4.35592 0.745037 5.12439 0.502871 5.91191 0.502871C6.69944 0.502871 7.46791 0.745037 8.11315 1.19654C8.75839 1.64804 9.24919 2.28704 9.51901 3.02689C9.78882 3.76675 9.8246 4.57169 9.62149 5.33257C9.41838 6.09345 8.98621 6.77347 8.38357 7.28043ZM0.972776 10.557C1.09876 10.647 1.24986 10.6952 1.40472 10.6947C1.52517 10.695 1.6439 10.6662 1.75075 10.6106C1.8576 10.5549 1.94937 10.4743 2.0182 10.3754C2.4571 9.7503 3.04005 9.24004 3.71779 8.88778C4.39552 8.53553 5.1481 8.35162 5.91191 8.35162C6.67573 8.35162 7.42831 8.53553 8.10604 8.88778C8.78378 9.24004 9.36673 9.7503 9.80563 10.3754L0.972776 10.557ZM3.69112 2.86315C3.39763 3.30238 3.24098 3.81878 3.24098 4.34704C3.24098 5.05541 3.52238 5.73478 4.02328 6.23567C4.52418 6.73657 5.20354 7.01797 5.91191 7.01797C6.44018 7.01797 6.95657 6.86132 7.3958 6.56784C7.83504 6.27435 8.17738 5.85721 8.37953 5.36916C8.58169 4.88111 8.63458 4.34407 8.53153 3.82596C8.42847 3.30785 8.17409 2.83194 7.80055 2.4584C7.42701 2.08487 6.9511 1.83048 6.43299 1.72743C5.91488 1.62437 5.37784 1.67726 4.88979 1.87942C4.40174 2.08157 3.9846 2.42391 3.69112 2.86315Z" fill="#4CAF4F" stroke="#4CAF4F" stroke-width="0.333867"/>
</svg>
