<svg width="17" height="17" viewBox="0 0 17 17" fill="none" xmlns="http://www.w3.org/2000/svg">
<mask id="path-1-inside-1_20_2668" fill="white">
<path d="M10.0071 8.47971C9.92673 8.47971 9.85209 8.45761 9.78578 8.42205V8.423C9.78578 8.54948 9.73662 8.66826 9.64742 8.75722C9.55822 8.84642 9.43953 8.89558 9.3132 8.89558C9.23163 8.89558 9.15604 8.87293 9.08902 8.83643C9.08225 8.95214 9.036 9.06029 8.95349 9.14289C8.86429 9.23209 8.7456 9.28125 8.61918 9.28125C8.36802 9.28125 8.16406 9.08382 8.14936 8.83635C8.07164 8.87836 7.98378 8.90038 7.89316 8.89456C7.64608 8.87836 7.45259 8.66488 7.45259 8.40844V6.28283L7.21055 6.70216C7.11836 6.86254 6.9458 6.96212 6.76 6.96212C6.66946 6.96212 6.58003 6.93836 6.50082 6.89298C6.40218 6.8358 6.33163 6.744 6.30229 6.63419C6.27279 6.5243 6.28805 6.40938 6.34508 6.31089C6.34515 6.31089 7.137 4.93964 7.18531 4.85541C7.19105 4.84274 7.20742 4.80601 7.22134 4.7747C7.23463 4.74481 7.24604 4.71414 7.25697 4.6833C7.49577 4.00913 8.08706 3.59035 8.80017 3.59035C9.72621 3.59035 10.4796 4.40729 10.4796 5.41146L10.4797 8.00705C10.4797 8.13338 10.4306 8.25208 10.3415 8.34136C10.2523 8.43056 10.1336 8.47972 10.0071 8.47972L10.0071 8.47971ZM8.80018 3.84147C8.18743 3.84147 7.69904 4.18757 7.49366 4.76728C7.48053 4.80409 7.46684 4.84091 7.45087 4.87678C7.40454 4.98068 7.40454 4.98068 7.39149 4.99563L7.38976 4.99413C7.3251 5.11613 7.13302 5.44877 6.56251 6.43657C6.53907 6.47708 6.53285 6.52412 6.54481 6.56911C6.55692 6.6141 6.58595 6.65202 6.62614 6.67522C6.75089 6.74688 6.92175 6.70063 6.99285 6.57674L7.46944 5.75161C7.49791 5.70244 7.55549 5.6783 7.61071 5.69324C7.66561 5.70795 7.70376 5.75774 7.70376 5.81453V8.40852C7.70376 8.53091 7.79611 8.63654 7.90962 8.64401C7.97506 8.64748 8.0361 8.62553 8.08196 8.57975C8.12365 8.53806 8.14661 8.48253 8.14661 8.42314V6.72664C8.14661 6.65727 8.20286 6.60102 8.27223 6.60102C8.34161 6.60102 8.39785 6.65719 8.39785 6.72664L8.39777 8.80876C8.39777 8.93083 8.49712 9.03018 8.61919 9.03018C8.6785 9.03018 8.73419 9.00721 8.77596 8.96552C8.81765 8.92375 8.84062 8.86807 8.84062 8.80876V6.72664C8.84062 6.65726 8.89678 6.60102 8.96623 6.60102C9.03561 6.60102 9.09185 6.65718 9.09185 6.72664L9.09177 8.40363V8.42314C9.09177 8.54514 9.19112 8.64448 9.31327 8.64448C9.3725 8.64448 9.42804 8.62143 9.47004 8.57958C9.51173 8.53797 9.5347 8.48244 9.5347 8.42305V6.72655C9.5347 6.65718 9.59086 6.60093 9.66031 6.60093C9.72969 6.60093 9.78593 6.6571 9.78593 6.72655L9.78577 8.00711C9.78577 8.12927 9.88512 8.22861 10.0071 8.22861C10.0665 8.22861 10.122 8.20557 10.1637 8.16396C10.2056 8.12211 10.2285 8.06642 10.2285 8.00711L10.2285 5.41152C10.2285 4.54589 9.58779 3.84149 8.80017 3.84149L8.80018 3.84147Z"/>
</mask>
<path d="M10.0071 8.47971C9.92673 8.47971 9.85209 8.45761 9.78578 8.42205V8.423C9.78578 8.54948 9.73662 8.66826 9.64742 8.75722C9.55822 8.84642 9.43953 8.89558 9.3132 8.89558C9.23163 8.89558 9.15604 8.87293 9.08902 8.83643C9.08225 8.95214 9.036 9.06029 8.95349 9.14289C8.86429 9.23209 8.7456 9.28125 8.61918 9.28125C8.36802 9.28125 8.16406 9.08382 8.14936 8.83635C8.07164 8.87836 7.98378 8.90038 7.89316 8.89456C7.64608 8.87836 7.45259 8.66488 7.45259 8.40844V6.28283L7.21055 6.70216C7.11836 6.86254 6.9458 6.96212 6.76 6.96212C6.66946 6.96212 6.58003 6.93836 6.50082 6.89298C6.40218 6.8358 6.33163 6.744 6.30229 6.63419C6.27279 6.5243 6.28805 6.40938 6.34508 6.31089C6.34515 6.31089 7.137 4.93964 7.18531 4.85541C7.19105 4.84274 7.20742 4.80601 7.22134 4.7747C7.23463 4.74481 7.24604 4.71414 7.25697 4.6833C7.49577 4.00913 8.08706 3.59035 8.80017 3.59035C9.72621 3.59035 10.4796 4.40729 10.4796 5.41146L10.4797 8.00705C10.4797 8.13338 10.4306 8.25208 10.3415 8.34136C10.2523 8.43056 10.1336 8.47972 10.0071 8.47972L10.0071 8.47971ZM8.80018 3.84147C8.18743 3.84147 7.69904 4.18757 7.49366 4.76728C7.48053 4.80409 7.46684 4.84091 7.45087 4.87678C7.40454 4.98068 7.40454 4.98068 7.39149 4.99563L7.38976 4.99413C7.3251 5.11613 7.13302 5.44877 6.56251 6.43657C6.53907 6.47708 6.53285 6.52412 6.54481 6.56911C6.55692 6.6141 6.58595 6.65202 6.62614 6.67522C6.75089 6.74688 6.92175 6.70063 6.99285 6.57674L7.46944 5.75161C7.49791 5.70244 7.55549 5.6783 7.61071 5.69324C7.66561 5.70795 7.70376 5.75774 7.70376 5.81453V8.40852C7.70376 8.53091 7.79611 8.63654 7.90962 8.64401C7.97506 8.64748 8.0361 8.62553 8.08196 8.57975C8.12365 8.53806 8.14661 8.48253 8.14661 8.42314V6.72664C8.14661 6.65727 8.20286 6.60102 8.27223 6.60102C8.34161 6.60102 8.39785 6.65719 8.39785 6.72664L8.39777 8.80876C8.39777 8.93083 8.49712 9.03018 8.61919 9.03018C8.6785 9.03018 8.73419 9.00721 8.77596 8.96552C8.81765 8.92375 8.84062 8.86807 8.84062 8.80876V6.72664C8.84062 6.65726 8.89678 6.60102 8.96623 6.60102C9.03561 6.60102 9.09185 6.65718 9.09185 6.72664L9.09177 8.40363V8.42314C9.09177 8.54514 9.19112 8.64448 9.31327 8.64448C9.3725 8.64448 9.42804 8.62143 9.47004 8.57958C9.51173 8.53797 9.5347 8.48244 9.5347 8.42305V6.72655C9.5347 6.65718 9.59086 6.60093 9.66031 6.60093C9.72969 6.60093 9.78593 6.6571 9.78593 6.72655L9.78577 8.00711C9.78577 8.12927 9.88512 8.22861 10.0071 8.22861C10.0665 8.22861 10.122 8.20557 10.1637 8.16396C10.2056 8.12211 10.2285 8.06642 10.2285 8.00711L10.2285 5.41152C10.2285 4.54589 9.58779 3.84149 8.80017 3.84149L8.80018 3.84147Z" fill="#4CAF4F"/>
<path d="M10.0071 8.47971V8.03455H11.5799L10.2404 8.85883L10.0071 8.47971ZM9.78578 8.42205H9.34063V7.67825L9.99614 8.02974L9.78578 8.42205ZM9.64742 8.75722L9.33265 8.44245L9.33307 8.44204L9.64742 8.75722ZM9.08902 8.83643L8.64462 8.81045L8.68558 8.10985L9.30191 8.44549L9.08902 8.83643ZM8.95349 9.14289L9.26842 9.4575L9.26826 9.45766L8.95349 9.14289ZM8.14936 8.83635L7.9377 8.44474L8.5523 8.11256L8.59373 8.80996L8.14936 8.83635ZM7.89316 8.89456L7.86462 9.3388L7.86403 9.33876L7.89316 8.89456ZM7.45259 6.28283L7.06705 6.0603L7.89775 4.62116V6.28283H7.45259ZM7.21055 6.70216L6.82461 6.48032L6.82501 6.47962L7.21055 6.70216ZM6.50082 6.89298L6.2795 7.27923L6.27755 7.2781L6.50082 6.89298ZM6.30229 6.63419L6.73222 6.51878L6.73236 6.51928L6.30229 6.63419ZM6.34508 6.31089L5.95984 6.08783L6.08844 5.86574H6.34508V6.31089ZM7.18531 4.85541L7.59074 5.03923L7.582 5.05851L7.57147 5.07687L7.18531 4.85541ZM7.22134 4.7747L6.81459 4.59382L6.81459 4.59381L7.22134 4.7747ZM7.25697 4.6833L7.67658 4.83193L7.67654 4.83205L7.25697 4.6833ZM10.4796 5.41146L10.0344 5.41147V5.41146H10.4796ZM10.4797 8.00705L10.9248 8.00704V8.00705H10.4797ZM10.3415 8.34136L10.6565 8.65584L10.6562 8.65613L10.3415 8.34136ZM10.0071 8.47972V8.92488H8.43435L9.7738 8.1006L10.0071 8.47972ZM8.80018 3.84147V3.39631H9.39034L9.22821 3.96376L8.80018 3.84147ZM7.49366 4.76728L7.91327 4.91593L7.91292 4.91689L7.49366 4.76728ZM7.45087 4.87678L7.85755 5.05782L7.85744 5.05806L7.45087 4.87678ZM7.39149 4.99563L7.72671 5.28852L7.43549 5.62182L7.10052 5.33253L7.39149 4.99563ZM7.38976 4.99413L6.99642 4.78568L7.25798 4.29214L7.68072 4.65723L7.38976 4.99413ZM6.56251 6.43657L6.94799 6.65921L6.9478 6.65953L6.56251 6.43657ZM6.54481 6.56911L6.11496 6.68484L6.11459 6.68345L6.54481 6.56911ZM6.62614 6.67522L6.40442 7.06123L6.40359 7.06075L6.62614 6.67522ZM6.99285 6.57674L6.60676 6.35515L6.60737 6.35409L6.99285 6.57674ZM7.46944 5.75161L7.08396 5.52896L7.08424 5.52849L7.46944 5.75161ZM7.61071 5.69324L7.49551 6.12323L7.49441 6.12294L7.61071 5.69324ZM7.90962 8.64401L7.88611 9.08859L7.88038 9.08821L7.90962 8.64401ZM8.08196 8.57975L8.39673 8.89452L8.39646 8.8948L8.08196 8.57975ZM8.39785 6.72664H8.843V6.72666L8.39785 6.72664ZM8.39777 8.80876H7.95262V8.80874L8.39777 8.80876ZM8.77596 8.96552L9.09103 9.28L9.09043 9.2806L8.77596 8.96552ZM9.09185 6.72664H9.53701V6.72666L9.09185 6.72664ZM9.09177 8.40363H8.64662V8.40361L9.09177 8.40363ZM9.47004 8.57958L9.78452 8.89465L9.78422 8.89494L9.47004 8.57958ZM9.78593 6.72655H10.2311V6.72661L9.78593 6.72655ZM9.78577 8.00711H9.34062L9.34062 8.00706L9.78577 8.00711ZM10.1637 8.16396L10.4785 8.47873L10.4782 8.47903L10.1637 8.16396ZM10.2285 8.00711H9.7833V8.0071L10.2285 8.00711ZM10.2285 5.41152H10.6737V5.41153L10.2285 5.41152ZM8.80017 3.84149V4.28665H8.21002L8.37215 3.7192L8.80017 3.84149ZM10.0071 8.92487C9.84321 8.92487 9.69687 8.87949 9.57542 8.81437L9.99614 8.02974C10.0019 8.03282 10.0055 8.034 10.007 8.03439C10.0082 8.03473 10.0081 8.03455 10.0071 8.03455V8.92487ZM10.2309 8.42205V8.423H9.34063V8.42205H10.2309ZM10.2309 8.423C10.2309 8.66717 10.1351 8.89953 9.96178 9.07241L9.33307 8.44204C9.33625 8.43886 9.33782 8.43614 9.33874 8.43392C9.33967 8.43169 9.34063 8.42826 9.34063 8.423H10.2309ZM9.96219 9.072C9.78944 9.24475 9.55749 9.34074 9.3132 9.34074V8.45043C9.3183 8.45043 9.32167 8.4495 9.32395 8.44856C9.32623 8.44761 9.32917 8.44593 9.33265 8.44245L9.96219 9.072ZM9.3132 9.34074C9.14714 9.34074 8.99897 9.29428 8.87612 9.22738L9.30191 8.44549C9.30771 8.44864 9.31138 8.44984 9.31284 8.45024C9.31409 8.45058 9.31399 8.45043 9.3132 8.45043V9.34074ZM9.53341 8.86241C9.5206 9.08152 9.43172 9.29403 9.26842 9.4575L8.63855 8.82828C8.6402 8.82663 8.64116 8.82517 8.64197 8.82333C8.64284 8.82133 8.64422 8.81725 8.64462 8.81045L9.53341 8.86241ZM9.26826 9.45766C9.09548 9.63044 8.86352 9.72641 8.61918 9.72641V8.83609C8.62436 8.83609 8.62775 8.83515 8.63003 8.83421C8.6323 8.83327 8.63524 8.83159 8.63872 8.82812L9.26826 9.45766ZM8.61918 9.72641C8.12773 9.72641 7.73337 9.34069 7.70498 8.86275L8.59373 8.80996C8.59418 8.81753 8.59728 8.82417 8.60276 8.8294C8.60543 8.83195 8.60814 8.83359 8.6105 8.83455C8.61257 8.8354 8.6152 8.83609 8.61918 8.83609V9.72641ZM8.36101 9.22797C8.21723 9.30569 8.04674 9.3505 7.86462 9.3388L7.9217 8.45032C7.92171 8.45032 7.92266 8.45041 7.925 8.44987C7.92751 8.44928 7.93187 8.44789 7.9377 8.44474L8.36101 9.22797ZM7.86403 9.33876C7.36976 9.30635 7.00744 8.88601 7.00744 8.40844H7.89775C7.89775 8.4235 7.90321 8.43508 7.91006 8.44265C7.91674 8.45001 7.92127 8.45029 7.92229 8.45036L7.86403 9.33876ZM7.00744 8.40844V6.28283H7.89775V8.40844H7.00744ZM7.83813 6.50537L7.59609 6.9247L6.82501 6.47962L7.06705 6.0603L7.83813 6.50537ZM7.59649 6.92399C7.42448 7.22325 7.1043 7.40728 6.76 7.40728V6.51696C6.78729 6.51696 6.81225 6.50183 6.82461 6.48032L7.59649 6.92399ZM6.76 7.40728C6.59166 7.40728 6.42595 7.36313 6.2795 7.27922L6.72214 6.50674C6.73411 6.5136 6.74727 6.51696 6.76 6.51696V7.40728ZM6.27755 7.2781C6.07769 7.16223 5.93222 6.97367 5.87222 6.74909L6.73236 6.51928C6.73195 6.51776 6.73084 6.51507 6.7287 6.51228C6.72657 6.50951 6.7246 6.50816 6.72409 6.50786L6.27755 7.2781ZM5.87235 6.74959C5.81211 6.52518 5.84365 6.2885 5.95984 6.08783L6.73031 6.53396C6.73095 6.53286 6.73206 6.53032 6.73254 6.52672C6.73301 6.52312 6.73261 6.52024 6.73222 6.51878L5.87235 6.74959ZM6.34508 5.86574C6.12671 5.92298 5.96326 6.08202 5.96204 6.08407C5.96164 6.08476 5.96103 6.08579 5.96084 6.08612C5.96073 6.08631 5.96054 6.08663 5.96047 6.08674C5.96043 6.08681 5.96035 6.08695 5.96033 6.08698C5.96027 6.08709 5.96029 6.08706 5.96046 6.08677C5.96076 6.08625 5.96127 6.08537 5.96201 6.08409C5.96347 6.08156 5.96567 6.07776 5.96857 6.07274C5.97436 6.06271 5.98288 6.04797 5.99375 6.02914C6.0155 5.9915 6.04662 5.93762 6.08411 5.87269C6.15911 5.74284 6.2596 5.56881 6.3616 5.39215C6.56594 5.03824 6.77543 4.67531 6.79916 4.63394L7.57147 5.07687C7.54689 5.11973 7.3363 5.48455 7.13262 5.83732C7.03061 6.014 6.9301 6.18806 6.85509 6.31794C6.81759 6.38288 6.78645 6.43679 6.76469 6.47447C6.75381 6.49331 6.74526 6.50811 6.73942 6.5182C6.73651 6.52325 6.73425 6.52716 6.73271 6.52982C6.73194 6.53114 6.73131 6.53223 6.73085 6.53303C6.73064 6.5334 6.73037 6.53386 6.73011 6.5343C6.73002 6.53447 6.72973 6.53496 6.72939 6.53554C6.72917 6.53591 6.72855 6.53698 6.72813 6.53768C6.72689 6.53976 6.56344 6.69881 6.34508 6.75605V5.86574ZM6.77989 4.67158C6.78479 4.66077 6.80031 4.62593 6.81459 4.59382L7.62809 4.95559C7.61452 4.98609 7.59732 5.02471 7.59074 5.03923L6.77989 4.67158ZM6.81459 4.59381C6.82078 4.5799 6.82763 4.56212 6.8374 4.53455L7.67654 4.83205C7.66445 4.86615 7.64848 4.90973 7.62808 4.9556L6.81459 4.59381ZM6.83736 4.53467C7.13886 3.68348 7.89774 3.1452 8.80017 3.1452V4.03551C8.27637 4.03551 7.85268 4.33478 7.67658 4.83193L6.83736 4.53467ZM8.80017 3.1452C10.0053 3.1452 10.9248 4.19607 10.9248 5.41146H10.0344C10.0344 4.61851 9.4471 4.03551 8.80017 4.03551V3.1452ZM10.9248 5.41144L10.9248 8.00704L10.0345 8.00707L10.0344 5.41147L10.9248 5.41144ZM10.9248 8.00705C10.9248 8.25117 10.8291 8.483 10.6565 8.65584L10.0264 8.02688C10.0299 8.02335 10.0316 8.02036 10.0326 8.01802C10.0336 8.01568 10.0345 8.01224 10.0345 8.00705H10.9248ZM10.6562 8.65613C10.4834 8.82894 10.2515 8.92488 10.0071 8.92488V8.03456C10.0123 8.03456 10.0158 8.03361 10.018 8.03267C10.0203 8.03173 10.0232 8.03006 10.0267 8.02659L10.6562 8.65613ZM9.7738 8.1006L9.77382 8.10059L10.2404 8.85883L10.2404 8.85884L9.7738 8.1006ZM8.80018 4.28662C8.37694 4.28662 8.056 4.51303 7.91327 4.91593L7.07406 4.61863C7.34207 3.86211 7.99791 3.39631 8.80018 3.39631V4.28662ZM7.91292 4.91689C7.89887 4.95627 7.88062 5.006 7.85755 5.05782L7.0442 4.69573C7.05306 4.67581 7.06218 4.65192 7.0744 4.61767L7.91292 4.91689ZM7.85744 5.05806C7.83706 5.10378 7.81998 5.14239 7.80691 5.16854C7.7988 5.18477 7.78567 5.20979 7.76663 5.2375C7.74733 5.26557 7.72826 5.28675 7.72671 5.28852L7.05626 4.70273C7.05731 4.70153 7.05697 4.70192 7.05644 4.70253C7.05576 4.70332 7.05403 4.70534 7.05176 4.70811C7.04669 4.71429 7.04005 4.72281 7.03289 4.73323C7.01897 4.75349 7.01118 4.76921 7.01049 4.77059C7.00999 4.7716 7.0103 4.771 7.01182 4.76776C7.01328 4.76462 7.01536 4.76011 7.01833 4.75353C7.02442 4.74009 7.0325 4.72196 7.0443 4.6955L7.85744 5.05806ZM7.10052 5.33253L7.09879 5.33104L7.68072 4.65723L7.68245 4.65872L7.10052 5.33253ZM7.78309 5.20259C7.71342 5.33405 7.51452 5.6783 6.94799 6.65921L6.17703 6.21393C6.75151 5.21925 6.93678 4.89822 6.99642 4.78568L7.78309 5.20259ZM6.9478 6.65953C6.98342 6.59797 6.99335 6.52371 6.97503 6.45477L6.11459 6.68345C6.07235 6.52453 6.09471 6.35619 6.17721 6.21361L6.9478 6.65953ZM6.97466 6.45338C6.95634 6.38534 6.91132 6.32584 6.8487 6.28969L6.40359 7.06075C6.26058 6.97819 6.1575 6.84286 6.11496 6.68484L6.97466 6.45338ZM6.84787 6.28921C6.79719 6.26011 6.74791 6.2603 6.71388 6.26946C6.67998 6.27859 6.63652 6.30331 6.60676 6.35515L7.37893 6.79833C7.18493 7.13636 6.74154 7.25487 6.40442 7.06123L6.84787 6.28921ZM6.60737 6.35409L7.08396 5.52896L7.85492 5.97425L7.37832 6.79939L6.60737 6.35409ZM7.08424 5.52849C7.21281 5.3065 7.47526 5.19541 7.72701 5.26355L7.49441 6.12294C7.63572 6.16118 7.78302 6.09839 7.85464 5.97472L7.08424 5.52849ZM7.72591 5.26325C7.97564 5.33016 8.14892 5.55647 8.14892 5.81453H7.25861C7.25861 5.95901 7.35558 6.08575 7.49551 6.12323L7.72591 5.26325ZM8.14892 5.81453V8.40852H7.25861V5.81453H8.14892ZM8.14892 8.40852C8.14892 8.35779 8.13013 8.31168 8.09928 8.27639C8.06848 8.24115 8.01413 8.20477 7.93885 8.19982L7.88038 9.08821C7.50565 9.06355 7.25861 8.73711 7.25861 8.40852H8.14892ZM7.93313 8.19948C7.88054 8.1967 7.81629 8.21596 7.76746 8.2647L8.39646 8.8948C8.25591 9.0351 8.06959 9.09825 7.88611 9.08855L7.93313 8.19948ZM7.76719 8.26498C7.72494 8.30722 7.70146 8.36511 7.70146 8.42314H8.59177C8.59177 8.59995 8.52235 8.7689 8.39673 8.89452L7.76719 8.26498ZM7.70146 8.42314V6.72664H8.59177V8.42314H7.70146ZM7.70146 6.72664C7.70146 6.41141 7.957 6.15587 8.27223 6.15587V7.04618C8.44871 7.04618 8.59177 6.90312 8.59177 6.72664H7.70146ZM8.27223 6.15587C8.58728 6.15587 8.843 6.41116 8.843 6.72664H7.95269C7.95269 6.90322 8.09593 7.04618 8.27223 7.04618V6.15587ZM8.843 6.72666L8.84293 8.80877L7.95262 8.80874L7.95269 6.72662L8.843 6.72666ZM8.84293 8.80876C8.84293 8.68498 8.74297 8.58502 8.61919 8.58502V9.47533C8.25127 9.47533 7.95262 9.17669 7.95262 8.80876H8.84293ZM8.61919 8.58502C8.56125 8.58502 8.50365 8.60837 8.46149 8.65045L9.09043 9.2806C8.96473 9.40605 8.79575 9.47533 8.61919 9.47533V8.58502ZM8.46089 8.65105C8.4188 8.69321 8.39546 8.75082 8.39546 8.80876H9.28577C9.28577 8.98531 9.21649 9.1543 9.09103 9.28L8.46089 8.65105ZM8.39546 8.80876V6.72664H9.28577V8.80876H8.39546ZM8.39546 6.72664C8.39546 6.4116 8.65074 6.15587 8.96623 6.15587V7.04618C9.14282 7.04618 9.28577 6.90293 9.28577 6.72664H8.39546ZM8.96623 6.15587C9.28128 6.15587 9.53701 6.41115 9.53701 6.72664H8.64669C8.64669 6.90322 8.78994 7.04618 8.96623 7.04618V6.15587ZM9.53701 6.72666L9.53693 8.40365L8.64662 8.40361L8.64669 6.72662L9.53701 6.72666ZM9.53693 8.40363V8.42314H8.64662V8.40363H9.53693ZM9.53693 8.42314C9.53693 8.29907 9.43675 8.19932 9.31327 8.19932V9.08963C8.94548 9.08963 8.64662 8.79121 8.64662 8.42314H9.53693ZM9.31327 8.19932C9.25412 8.19932 9.19686 8.22338 9.15586 8.26422L9.78422 8.89494C9.65921 9.01948 9.49088 9.08963 9.31327 9.08963V8.19932ZM9.15556 8.26451C9.11298 8.30702 9.08954 8.36509 9.08954 8.42305H9.97985C9.97985 8.59979 9.91047 8.76893 9.78452 8.89465L9.15556 8.26451ZM9.08954 8.42305V6.72655H9.97985V8.42305H9.08954ZM9.08954 6.72655C9.08954 6.4115 9.34483 6.15578 9.66031 6.15578V7.04609C9.83689 7.04609 9.97985 6.90285 9.97985 6.72655H9.08954ZM9.66031 6.15578C9.97536 6.15578 10.2311 6.41106 10.2311 6.72655H9.34078C9.34078 6.90313 9.48402 7.04609 9.66031 7.04609V6.15578ZM10.2311 6.72661L10.2309 8.00717L9.34062 8.00706L9.34078 6.7265L10.2311 6.72661ZM10.2309 8.00711C10.2309 7.88363 10.1312 7.78346 10.0071 7.78346V8.67377C9.63906 8.67377 9.34062 8.37491 9.34062 8.00711H10.2309ZM10.0071 7.78346C9.94872 7.78346 9.89111 7.8071 9.84925 7.84889L10.4782 8.47903C10.353 8.60404 10.1843 8.67377 10.0071 8.67377V7.78346ZM9.84895 7.84919C9.80656 7.89158 9.7833 7.94943 9.7833 8.00711H10.6736C10.6736 8.18342 10.6046 8.35265 10.4785 8.47873L9.84895 7.84919ZM9.7833 8.0071L9.78338 5.4115L10.6737 5.41153L10.6736 8.00713L9.7833 8.0071ZM9.78338 5.41152C9.78338 4.75117 9.30324 4.28665 8.80017 4.28665V3.39634C9.87234 3.39634 10.6737 4.34061 10.6737 5.41152H9.78338ZM8.37215 3.7192L8.37215 3.71917L9.22821 3.96376L9.2282 3.96379L8.37215 3.7192Z" fill="#4CAF4F" mask="url(#path-1-inside-1_20_2668)"/>
<mask id="path-3-inside-2_20_2668" fill="white">
<path d="M5.07171 10.2838L6.89452 9.1903C7.11429 9.05831 7.39707 9.11439 7.53803 9.31804C7.58947 9.39221 7.61574 9.47866 7.61983 9.56668C7.68779 9.53121 7.76173 9.51194 7.837 9.51194C7.87555 9.51194 7.91424 9.51673 7.95247 9.52625C8.07494 9.55685 8.17814 9.63338 8.24304 9.74161C8.30802 9.85 8.32697 9.97703 8.29637 10.0994C8.26814 10.2125 8.19931 10.3078 8.10358 10.3732C8.17052 10.4127 8.22825 10.4665 8.26932 10.5351C8.33429 10.6435 8.35324 10.7705 8.32272 10.893C8.29213 11.0153 8.21559 11.1185 8.1072 11.1835L8.10657 11.1839C8.17233 11.2233 8.22904 11.2767 8.26963 11.3442C8.33468 11.4526 8.35364 11.5796 8.32304 11.7021C8.29236 11.8245 8.21583 11.9277 8.1076 11.9927L5.88191 13.3279C5.46652 13.577 4.9863 13.663 4.52993 13.5698C4.06946 13.4757 3.68812 13.211 3.45625 12.8245C3.0893 12.2129 3.14429 11.4904 3.59948 10.9389C3.62033 10.9137 3.64086 10.8881 3.6595 10.8615C3.67924 10.8334 3.70229 10.8004 3.71016 10.7891C3.75727 10.7049 4.52609 9.31971 4.52601 9.31987C4.60364 9.17978 4.74916 9.10048 4.89924 9.10056C4.96924 9.10056 5.04027 9.11779 5.1058 9.15413C5.18493 9.19834 5.2514 9.26276 5.29788 9.34039C5.39345 9.49968 5.39684 9.69901 5.30685 9.86032L5.07171 10.2838ZM5.08264 9.46953C5.05826 9.42886 5.02475 9.39646 4.98377 9.37349C4.89905 9.32661 4.79239 9.35713 4.74575 9.44153C4.19562 10.4326 4.00809 10.7704 3.93572 10.8906L3.93737 10.891C3.93132 10.9111 3.93132 10.9111 3.86509 11.0057C3.84259 11.0377 3.81813 11.0685 3.79319 11.0988C3.40178 11.573 3.35633 12.1698 3.67151 12.6953C3.86674 13.0208 4.1894 13.2439 4.58009 13.3237C4.97502 13.404 5.39129 13.3293 5.75258 13.1125L7.97847 11.7772C8.02928 11.7468 8.06515 11.6984 8.07946 11.6411C8.09378 11.5838 8.08489 11.5243 8.05437 11.4734C7.9916 11.3688 7.85529 11.3345 7.75067 11.3975L6.65261 12.0562C6.59314 12.0919 6.5159 12.0727 6.48027 12.0132C6.44456 11.9537 6.46383 11.8766 6.52329 11.8409L7.62144 11.1821L7.97808 10.9681C8.02889 10.9376 8.06484 10.8892 8.07915 10.8321C8.09347 10.7747 8.08458 10.7151 8.05406 10.6644C7.99121 10.5597 7.8549 10.5256 7.75036 10.5884L6.29558 11.4611C6.23595 11.4969 6.15895 11.4775 6.12324 11.4181C6.08753 11.3586 6.10688 11.2814 6.16626 11.2457L7.95173 10.1746C8.00254 10.1441 8.03841 10.0958 8.05272 10.0385C8.06704 9.98123 8.05815 9.92168 8.02771 9.87087C7.99727 9.82014 7.94889 9.78427 7.89155 9.76995C7.8339 9.75564 7.77459 9.76453 7.72393 9.79489L7.39341 9.99319C7.39333 9.99319 7.39333 9.99327 7.39325 9.99327H7.39318L5.93847 10.866C5.87885 10.9018 5.80177 10.8825 5.76613 10.823C5.73042 10.7635 5.74977 10.6863 5.80916 10.6506L7.26394 9.7779C7.31475 9.74738 7.3507 9.69901 7.36502 9.64182C7.38075 9.57905 7.36879 9.51487 7.33151 9.46106C7.26685 9.36754 7.12857 9.34268 7.02372 9.40569L4.79944 10.7401C4.75075 10.7692 4.68838 10.7621 4.64755 10.7227C4.60665 10.6832 4.59745 10.6211 4.62498 10.5715L5.08749 9.73818C5.1339 9.65488 5.13209 9.552 5.08262 9.46956L5.08264 9.46953Z"/>
</mask>
<path d="M5.07171 10.2838L6.89452 9.1903C7.11429 9.05831 7.39707 9.11439 7.53803 9.31804C7.58947 9.39221 7.61574 9.47866 7.61983 9.56668C7.68779 9.53121 7.76173 9.51194 7.837 9.51194C7.87555 9.51194 7.91424 9.51673 7.95247 9.52625C8.07494 9.55685 8.17814 9.63338 8.24304 9.74161C8.30802 9.85 8.32697 9.97703 8.29637 10.0994C8.26814 10.2125 8.19931 10.3078 8.10358 10.3732C8.17052 10.4127 8.22825 10.4665 8.26932 10.5351C8.33429 10.6435 8.35324 10.7705 8.32272 10.893C8.29213 11.0153 8.21559 11.1185 8.1072 11.1835L8.10657 11.1839C8.17233 11.2233 8.22904 11.2767 8.26963 11.3442C8.33468 11.4526 8.35364 11.5796 8.32304 11.7021C8.29236 11.8245 8.21583 11.9277 8.1076 11.9927L5.88191 13.3279C5.46652 13.577 4.9863 13.663 4.52993 13.5698C4.06946 13.4757 3.68812 13.211 3.45625 12.8245C3.0893 12.2129 3.14429 11.4904 3.59948 10.9389C3.62033 10.9137 3.64086 10.8881 3.6595 10.8615C3.67924 10.8334 3.70229 10.8004 3.71016 10.7891C3.75727 10.7049 4.52609 9.31971 4.52601 9.31987C4.60364 9.17978 4.74916 9.10048 4.89924 9.10056C4.96924 9.10056 5.04027 9.11779 5.1058 9.15413C5.18493 9.19834 5.2514 9.26276 5.29788 9.34039C5.39345 9.49968 5.39684 9.69901 5.30685 9.86032L5.07171 10.2838ZM5.08264 9.46953C5.05826 9.42886 5.02475 9.39646 4.98377 9.37349C4.89905 9.32661 4.79239 9.35713 4.74575 9.44153C4.19562 10.4326 4.00809 10.7704 3.93572 10.8906L3.93737 10.891C3.93132 10.9111 3.93132 10.9111 3.86509 11.0057C3.84259 11.0377 3.81813 11.0685 3.79319 11.0988C3.40178 11.573 3.35633 12.1698 3.67151 12.6953C3.86674 13.0208 4.1894 13.2439 4.58009 13.3237C4.97502 13.404 5.39129 13.3293 5.75258 13.1125L7.97847 11.7772C8.02928 11.7468 8.06515 11.6984 8.07946 11.6411C8.09378 11.5838 8.08489 11.5243 8.05437 11.4734C7.9916 11.3688 7.85529 11.3345 7.75067 11.3975L6.65261 12.0562C6.59314 12.0919 6.5159 12.0727 6.48027 12.0132C6.44456 11.9537 6.46383 11.8766 6.52329 11.8409L7.62144 11.1821L7.97808 10.9681C8.02889 10.9376 8.06484 10.8892 8.07915 10.8321C8.09347 10.7747 8.08458 10.7151 8.05406 10.6644C7.99121 10.5597 7.8549 10.5256 7.75036 10.5884L6.29558 11.4611C6.23595 11.4969 6.15895 11.4775 6.12324 11.4181C6.08753 11.3586 6.10688 11.2814 6.16626 11.2457L7.95173 10.1746C8.00254 10.1441 8.03841 10.0958 8.05272 10.0385C8.06704 9.98123 8.05815 9.92168 8.02771 9.87087C7.99727 9.82014 7.94889 9.78427 7.89155 9.76995C7.8339 9.75564 7.77459 9.76453 7.72393 9.79489L7.39341 9.99319C7.39333 9.99319 7.39333 9.99327 7.39325 9.99327H7.39318L5.93847 10.866C5.87885 10.9018 5.80177 10.8825 5.76613 10.823C5.73042 10.7635 5.74977 10.6863 5.80916 10.6506L7.26394 9.7779C7.31475 9.74738 7.3507 9.69901 7.36502 9.64182C7.38075 9.57905 7.36879 9.51487 7.33151 9.46106C7.26685 9.36754 7.12857 9.34268 7.02372 9.40569L4.79944 10.7401C4.75075 10.7692 4.68838 10.7621 4.64755 10.7227C4.60665 10.6832 4.59745 10.6211 4.62498 10.5715L5.08749 9.73818C5.1339 9.65488 5.13209 9.552 5.08262 9.46956L5.08264 9.46953Z" fill="#4CAF4F"/>
<path d="M5.07171 10.2838L5.30071 10.6655L3.87601 11.5202L4.68252 10.0677L5.07171 10.2838ZM6.89452 9.1903L7.12372 9.57192L7.12353 9.57203L6.89452 9.1903ZM7.53803 9.31804L7.17223 9.57173L7.172 9.57139L7.53803 9.31804ZM7.61983 9.56668L7.82582 9.96131L7.20752 10.2841L7.17515 9.58734L7.61983 9.56668ZM7.95247 9.52625L8.06002 9.09428L8.06037 9.09437L7.95247 9.52625ZM8.24304 9.74161L8.62482 9.51268L8.62486 9.51274L8.24304 9.74161ZM8.29637 10.0994L7.86445 9.99161L7.86452 9.99133L8.29637 10.0994ZM8.10358 10.3732L7.87741 10.7566L7.27395 10.4006L7.85256 10.0055L8.10358 10.3732ZM8.26932 10.5351L7.8875 10.764L7.88737 10.7638L8.26932 10.5351ZM8.32272 10.893L8.75467 11.0006L8.75457 11.001L8.32272 10.893ZM8.1072 11.1835L7.87123 10.806L7.8781 10.8019L8.1072 11.1835ZM8.10657 11.1839L7.87775 11.5658L7.25389 11.1919L7.87064 10.8064L8.10657 11.1839ZM8.26963 11.3442L8.65123 11.115L8.65132 11.1152L8.26963 11.3442ZM8.32304 11.7021L8.75492 11.81L8.75484 11.8103L8.32304 11.7021ZM8.1076 11.9927L8.33674 12.3743L8.33661 12.3744L8.1076 11.9927ZM5.88191 13.3279L6.11092 13.7096L6.11086 13.7097L5.88191 13.3279ZM4.52993 13.5698L4.44085 14.0059L4.44082 14.0059L4.52993 13.5698ZM3.45625 12.8245L3.83796 12.5955L3.83799 12.5955L3.45625 12.8245ZM3.59948 10.9389L3.25617 10.6555L3.25664 10.655L3.59948 10.9389ZM3.6595 10.8615L3.29501 10.6059L3.29535 10.6055L3.6595 10.8615ZM3.71016 10.7891L4.09859 11.0065L4.08808 11.0253L4.0758 11.043L3.71016 10.7891ZM4.52601 9.31987L4.91537 9.53565L4.12785 9.12079L4.52601 9.31987ZM4.89924 9.10056V9.54572H4.899L4.89924 9.10056ZM5.1058 9.15413L5.3217 8.76484L5.3229 8.76551L5.1058 9.15413ZM5.29788 9.34039L4.91616 9.56942L4.91596 9.56908L5.29788 9.34039ZM5.30685 9.86032L4.91766 9.64422L4.91809 9.64346L5.30685 9.86032ZM5.08264 9.46953L5.46442 9.24061L5.61882 9.49811L5.43793 9.73774L5.08264 9.46953ZM4.98377 9.37349L5.19931 8.98399L5.2014 8.98516L4.98377 9.37349ZM4.74575 9.44153L5.13538 9.65683L5.13497 9.65757L4.74575 9.44153ZM3.93572 10.8906L3.83261 11.3236L3.24027 11.1826L3.55436 10.6609L3.93572 10.8906ZM3.93737 10.891L4.04048 10.4579L4.4996 10.5672L4.36366 11.0192L3.93737 10.891ZM3.86509 11.0057L4.22979 11.261L4.2293 11.2617L3.86509 11.0057ZM3.79319 11.0988L4.13685 11.3817L4.13651 11.3821L3.79319 11.0988ZM3.67151 12.6953L3.28976 12.9243L3.28975 12.9243L3.67151 12.6953ZM4.58009 13.3237L4.49138 13.7599L4.49104 13.7599L4.58009 13.3237ZM5.75258 13.1125L5.52354 12.7308L5.52358 12.7308L5.75258 13.1125ZM7.97847 11.7772L7.74947 11.3955L7.7497 11.3953L7.97847 11.7772ZM8.07946 11.6411L7.64756 11.5332L7.6476 11.5331L8.07946 11.6411ZM8.05437 11.4734L7.67276 11.7026L7.67265 11.7025L8.05437 11.4734ZM7.75067 11.3975L7.98033 11.7788L7.97968 11.7792L7.75067 11.3975ZM6.65261 12.0562L6.42343 11.6746L6.4236 11.6745L6.65261 12.0562ZM6.48027 12.0132L6.8619 11.784L6.86225 11.7846L6.48027 12.0132ZM6.52329 11.8409L6.29412 11.4592L6.29429 11.4591L6.52329 11.8409ZM7.62144 11.1821L7.85044 11.5638L7.85044 11.5638L7.62144 11.1821ZM7.97808 10.9681L8.20728 11.3498L8.20708 11.3499L7.97808 10.9681ZM8.07915 10.8321L8.51105 10.9399L8.51098 10.9402L8.07915 10.8321ZM8.05406 10.6644L7.6726 10.8938L7.67239 10.8935L8.05406 10.6644ZM7.75036 10.5884L7.97952 10.97L7.97936 10.9701L7.75036 10.5884ZM6.29558 11.4611L6.06647 11.0794L6.06658 11.0794L6.29558 11.4611ZM6.12324 11.4181L6.50487 11.1889L6.50487 11.1889L6.12324 11.4181ZM6.16626 11.2457L5.93686 10.8642L5.93726 10.864L6.16626 11.2457ZM7.95173 10.1746L8.18093 10.5563L8.18073 10.5564L7.95173 10.1746ZM8.05272 10.0385L7.62082 9.93067L7.62086 9.93053L8.05272 10.0385ZM8.02771 9.87087L8.40943 9.64184L8.40958 9.6421L8.02771 9.87087ZM7.89155 9.76995L7.99883 9.33792L7.99938 9.33805L7.89155 9.76995ZM7.72393 9.79489L7.49491 9.41316L7.49507 9.41307L7.72393 9.79489ZM7.39341 9.99319L7.62243 10.3749L7.5167 10.4383H7.39341V9.99319ZM7.39318 9.99327L7.16417 9.61154L7.26989 9.54811H7.39318V9.99327ZM5.93847 10.866L5.709 10.4845L5.70946 10.4843L5.93847 10.866ZM5.76613 10.823L6.14776 10.5938L6.14812 10.5944L5.76613 10.823ZM5.80916 10.6506L5.57976 10.2691L5.58016 10.2689L5.80916 10.6506ZM7.26394 9.7779L7.49314 10.1595L7.49294 10.1596L7.26394 9.7779ZM7.36502 9.64182L6.93319 9.53372L6.93322 9.5336L7.36502 9.64182ZM7.33151 9.46106L6.96562 9.71462L6.96534 9.71421L7.33151 9.46106ZM7.02372 9.40569L7.253 9.78725L7.25273 9.78742L7.02372 9.40569ZM4.79944 10.7401L5.02845 11.1218L5.02783 11.1222L4.79944 10.7401ZM4.64755 10.7227L4.33838 11.0429L4.33837 11.0429L4.64755 10.7227ZM4.62498 10.5715L4.2357 10.3556L4.23576 10.3555L4.62498 10.5715ZM5.08749 9.73818L4.69827 9.52215L4.69862 9.52153L5.08749 9.73818ZM5.08262 9.46956L4.70093 9.69864L4.54636 9.44109L4.72733 9.20135L5.08262 9.46956ZM4.8427 9.90207L6.66552 8.80856L7.12353 9.57203L5.30071 10.6655L4.8427 9.90207ZM6.66533 8.80868C7.0748 8.56276 7.62203 8.65723 7.90405 9.06469L7.172 9.57139C7.17146 9.57062 7.16893 9.56688 7.15918 9.56494C7.14915 9.56295 7.13647 9.56426 7.12372 9.57192L6.66533 8.80868ZM7.90382 9.06435C8.00787 9.21437 8.05696 9.38356 8.06451 9.54602L7.17515 9.58734C7.17452 9.57375 7.17107 9.57005 7.17223 9.57173L7.90382 9.06435ZM7.41384 9.17206C7.54073 9.10582 7.68492 9.06678 7.837 9.06678V9.95709C7.83854 9.95709 7.83485 9.9566 7.82582 9.96131L7.41384 9.17206ZM7.837 9.06678C7.9126 9.06678 7.9874 9.0762 8.06002 9.09428L7.84493 9.95822C7.84109 9.95727 7.83849 9.95709 7.837 9.95709V9.06678ZM8.06037 9.09437C8.29755 9.15363 8.49923 9.30324 8.62482 9.51268L7.86127 9.97055C7.8587 9.96626 7.85622 9.96389 7.85425 9.96244C7.85229 9.96098 7.84934 9.95932 7.84457 9.95813L8.06037 9.09437ZM8.62486 9.51274C8.75032 9.72204 8.78755 9.9702 8.72822 10.2074L7.86452 9.99133C7.86569 9.98668 7.86562 9.98335 7.86526 9.98091C7.8649 9.97846 7.86394 9.97501 7.86123 9.97048L8.62486 9.51274ZM8.72829 10.2071C8.67234 10.4314 8.53591 10.617 8.3546 10.7408L7.85256 10.0055C7.85818 10.0017 7.86092 9.99846 7.86211 9.99677C7.86321 9.99523 7.86392 9.99377 7.86446 9.99161L8.72829 10.2071ZM8.32975 9.98976C8.45306 10.0625 8.56769 10.1669 8.65126 10.3065L7.88737 10.7638C7.88782 10.7645 7.88795 10.7644 7.88689 10.7634C7.88572 10.7623 7.88283 10.7598 7.87741 10.7566L8.32975 9.98976ZM8.65113 10.3063C8.77661 10.5156 8.81374 10.7636 8.75467 11.0006L7.89078 10.7853C7.892 10.7804 7.89192 10.777 7.89155 10.7745C7.89118 10.772 7.89023 10.7685 7.8875 10.764L8.65113 10.3063ZM8.75457 11.001C8.69526 11.2381 8.54559 11.4396 8.3363 11.5652L7.8781 10.8019C7.88262 10.7991 7.8851 10.7965 7.88659 10.7945C7.88808 10.7925 7.88971 10.7896 7.89088 10.7849L8.75457 11.001ZM8.34313 11.561L8.3425 11.5614L7.87064 10.8064L7.87127 10.806L8.34313 11.561ZM8.3354 10.8021C8.45649 10.8746 8.56884 10.9778 8.65123 11.115L7.88804 11.5735C7.88839 11.574 7.88839 11.5738 7.88726 11.5727C7.88601 11.5715 7.8831 11.569 7.87775 11.5658L8.3354 10.8021ZM8.65132 11.1152C8.77703 11.3246 8.81418 11.5728 8.75492 11.81L7.89116 11.5942C7.89237 11.5894 7.89228 11.586 7.89193 11.5836C7.89157 11.5812 7.89063 11.5778 7.88794 11.5733L8.65132 11.1152ZM8.75484 11.8103C8.69546 12.0472 8.54596 12.2487 8.33674 12.3743L7.87846 11.611C7.88285 11.6084 7.8853 11.6058 7.88682 11.6038C7.88834 11.6017 7.89003 11.5987 7.89124 11.5939L8.75484 11.8103ZM8.33661 12.3744L6.11092 13.7096L5.6529 12.9462L7.87859 11.6109L8.33661 12.3744ZM6.11086 13.7097C5.60423 14.0135 5.01106 14.1224 4.44085 14.0059L4.61901 13.1336C4.96154 13.2036 5.3288 13.1405 5.65297 12.9461L6.11086 13.7097ZM4.44082 14.0059C3.86402 13.8881 3.37362 13.5521 3.07451 13.0535L3.83799 12.5955C4.00262 12.87 4.27491 13.0633 4.61903 13.1336L4.44082 14.0059ZM3.07453 13.0535C2.61017 12.2796 2.68143 11.3518 3.25617 10.6555L3.9428 11.2223C3.60716 11.6289 3.56843 12.1463 3.83796 12.5955L3.07453 13.0535ZM3.25664 10.655C3.27506 10.6327 3.28665 10.6179 3.29501 10.6059L4.02399 11.1171C3.99507 11.1583 3.9656 11.1947 3.94233 11.2228L3.25664 10.655ZM3.29535 10.6055C3.31459 10.5781 3.33714 10.5458 3.34451 10.5351L4.0758 11.043C4.06745 11.055 4.0439 11.0887 4.02366 11.1175L3.29535 10.6055ZM3.32172 10.5716C3.34477 10.5304 3.5481 10.1643 3.74658 9.80677C3.84562 9.62838 3.94318 9.45263 4.01598 9.32148C4.05238 9.25591 4.08259 9.20148 4.10369 9.16346C4.11425 9.14445 4.12252 9.12953 4.12816 9.11937C4.13098 9.11429 4.13315 9.1104 4.1346 9.10777C4.13533 9.10646 4.13589 9.10546 4.13627 9.10478C4.13645 9.10444 4.13661 9.10417 4.13672 9.10397C4.13677 9.10388 4.13683 9.10376 4.13689 9.10366C4.13692 9.10359 4.137 9.10345 4.13706 9.10335C4.13721 9.10308 4.73413 8.92636 4.92417 9.51895L4.12785 9.12079C4.31788 9.71338 4.9148 9.53667 4.91494 9.53642C4.91499 9.53634 4.91505 9.53623 4.91506 9.53621C4.91507 9.53619 4.91507 9.5362 4.91502 9.53627C4.91495 9.53641 4.91482 9.53663 4.91464 9.53696C4.91428 9.53761 4.91374 9.53859 4.91301 9.53989C4.91156 9.54251 4.90941 9.54639 4.90659 9.55147C4.90095 9.56162 4.89268 9.57653 4.88212 9.59555C4.86102 9.63357 4.83081 9.688 4.7944 9.75357C4.7216 9.88473 4.62403 10.0605 4.52498 10.2389C4.3273 10.595 4.12266 10.9635 4.09859 11.0065L3.32172 10.5716ZM4.13665 9.10409C4.29601 8.81652 4.59429 8.65525 4.89948 8.65541L4.899 9.54572C4.90217 9.54572 4.90492 9.54497 4.90754 9.54346C4.91078 9.54159 4.91377 9.53853 4.91537 9.53565L4.13665 9.10409ZM4.89924 8.65541C5.04264 8.65541 5.18826 8.69083 5.3217 8.76484L4.8899 9.54343C4.89228 9.54475 4.89585 9.54572 4.89924 9.54572V8.65541ZM5.3229 8.76551C5.46979 8.84757 5.59318 8.96704 5.67981 9.11171L4.91596 9.56908C4.90961 9.55848 4.90006 9.54911 4.8887 9.54276L5.3229 8.76551ZM5.6796 9.11136C5.85668 9.40649 5.86369 9.77587 5.69561 10.0772L4.91809 9.64346C4.92998 9.62214 4.93023 9.59286 4.91616 9.56942L5.6796 9.11136ZM5.69604 10.0764L5.46089 10.4999L4.68252 10.0677L4.91766 9.64422L5.69604 10.0764ZM4.70086 9.69845C4.7165 9.72454 4.73967 9.74699 4.76613 9.76182L5.2014 8.98516C5.30982 9.04592 5.40001 9.13319 5.46442 9.24061L4.70086 9.69845ZM4.76822 9.76298C4.89743 9.83448 5.06235 9.78899 5.13538 9.65683L4.35613 9.22623C4.52243 8.92526 4.90067 8.81873 5.19931 8.98399L4.76822 9.76298ZM5.13497 9.65757C4.58855 10.642 4.3948 10.9911 4.31708 11.1202L3.55436 10.6609C3.62139 10.5496 3.8027 10.2233 4.35654 9.22548L5.13497 9.65757ZM4.03883 10.4575L4.04048 10.4579L3.83427 11.324L3.83261 11.3236L4.03883 10.4575ZM4.36366 11.0192C4.36303 11.0213 4.35488 11.05 4.34064 11.0826C4.3263 11.1153 4.3109 11.1411 4.30046 11.1577C4.28399 11.1838 4.2586 11.2198 4.22979 11.261L3.50039 10.7505C3.51728 10.7263 3.52876 10.7099 3.53719 10.6977C3.54131 10.6918 3.54406 10.6877 3.5459 10.685C3.54781 10.6821 3.54797 10.6818 3.54713 10.6832C3.54573 10.6854 3.5356 10.7015 3.52503 10.7256C3.51968 10.7378 3.51582 10.7484 3.51323 10.7561C3.51207 10.7596 3.51127 10.7622 3.51097 10.7631C3.51074 10.7639 3.5106 10.7643 3.51108 10.7627L4.36366 11.0192ZM4.2293 11.2617C4.19717 11.3074 4.1644 11.3483 4.13684 11.3817L3.44954 10.8158C3.47186 10.7887 3.48801 10.7681 3.50087 10.7498L4.2293 11.2617ZM4.13651 11.3821C3.86457 11.7116 3.8355 12.1032 4.05327 12.4663L3.28975 12.9243C2.87716 12.2364 2.93899 11.4344 3.44987 10.8154L4.13651 11.3821ZM4.05326 12.4663C4.1807 12.6788 4.39375 12.8313 4.66913 12.8875L4.49104 13.7599C3.98505 13.6566 3.55278 13.3628 3.28976 12.9243L4.05326 12.4663ZM4.66879 12.8875C4.94969 12.9446 5.25314 12.893 5.52354 12.7308L5.98161 13.4942C5.52943 13.7655 5.00036 13.8634 4.49138 13.7599L4.66879 12.8875ZM5.52358 12.7308L7.74947 11.3955L8.20747 12.159L5.98158 13.4942L5.52358 12.7308ZM7.7497 11.3953C7.69926 11.4256 7.66193 11.4757 7.64756 11.5332L8.51136 11.7489C8.46837 11.9211 8.35929 12.068 8.20724 12.1591L7.7497 11.3953ZM7.6476 11.5331C7.63318 11.5908 7.64263 11.6525 7.67276 11.7026L8.43598 11.2442C8.52715 11.396 8.55438 11.5768 8.51133 11.749L7.6476 11.5331ZM7.67265 11.7025C7.73584 11.8078 7.87296 11.8435 7.98033 11.7788L7.52101 11.0161C7.83762 10.8254 8.24736 10.9299 8.43609 11.2444L7.67265 11.7025ZM7.97968 11.7792L6.88162 12.438L6.4236 11.6745L7.52166 11.0157L7.97968 11.7792ZM6.88178 12.4379C6.61209 12.5998 6.26075 12.5133 6.09828 12.2418L6.86225 11.7846C6.77104 11.6322 6.5742 11.5841 6.42343 11.6746L6.88178 12.4379ZM6.09864 12.2424C5.93632 11.9721 6.02394 11.6215 6.29412 11.4592L6.75247 12.2225C6.90371 12.1317 6.95279 11.9354 6.8619 11.784L6.09864 12.2424ZM6.29429 11.4591L7.39244 10.8004L7.85044 11.5638L6.75229 12.2226L6.29429 11.4591ZM7.39243 10.8004L7.74907 10.5864L8.20708 11.3499L7.85044 11.5638L7.39243 10.8004ZM7.74887 10.5865C7.69929 10.6163 7.66185 10.6659 7.64732 10.724L8.51098 10.9402C8.46782 11.1126 8.35848 11.2589 8.20728 11.3498L7.74887 10.5865ZM7.64725 10.7242C7.63295 10.7815 7.64217 10.8432 7.6726 10.8938L8.43551 10.4349C8.52698 10.5869 8.55398 10.7679 8.51105 10.9399L7.64725 10.7242ZM7.67239 10.8935C7.73593 10.9993 7.873 11.034 7.97952 10.97L7.5212 10.2067C7.83679 10.0172 8.24649 10.12 8.43572 10.4352L7.67239 10.8935ZM7.97936 10.9701L6.52458 11.8428L6.06658 11.0794L7.52136 10.2066L7.97936 10.9701ZM6.52468 11.8428C6.25399 12.0053 5.90369 11.9171 5.74161 11.6472L6.50487 11.1889C6.41421 11.0379 6.21792 10.9885 6.06647 11.0794L6.52468 11.8428ZM5.74161 11.6472C5.57909 11.3766 5.66735 11.0263 5.93686 10.8642L6.39566 11.6272C6.5464 11.5366 6.59596 11.3406 6.50487 11.1889L5.74161 11.6472ZM5.93726 10.864L7.72273 9.79291L8.18073 10.5564L6.39526 11.6275L5.93726 10.864ZM7.72252 9.79304C7.67274 9.82294 7.63527 9.87281 7.62082 9.93067L8.48462 10.1463C8.44155 10.3189 8.33234 10.4653 8.18093 10.5563L7.72252 9.79304ZM7.62086 9.93053C7.60645 9.98817 7.61591 10.0497 7.64584 10.0996L8.40958 9.6421C8.50039 9.79368 8.52763 9.97428 8.48459 10.1465L7.62086 9.93053ZM7.64599 10.0999C7.6762 10.1502 7.72624 10.1875 7.78373 10.2019L7.99938 9.33805C8.17155 9.38104 8.31834 9.49003 8.40943 9.64184L7.64599 10.0999ZM7.78428 10.202C7.84069 10.216 7.90227 10.207 7.95279 10.1767L7.49507 9.41307C7.64691 9.32206 7.82711 9.29528 7.99883 9.33792L7.78428 10.202ZM7.95295 10.1766L7.62243 10.3749L7.16439 9.61146L7.49491 9.41316L7.95295 10.1766ZM7.39341 10.4383C7.41202 10.4383 7.43162 10.4372 7.45198 10.4345C7.47239 10.4318 7.49293 10.4276 7.51342 10.4219C7.53391 10.4161 7.55348 10.4091 7.57204 10.4009C7.59057 10.3928 7.60735 10.3839 7.62239 10.3749C7.65223 10.357 7.67427 10.339 7.68786 10.327C7.69465 10.321 7.69995 10.316 7.70315 10.3129C7.70606 10.3101 7.70851 10.3076 7.7081 10.308C7.7081 10.308 7.70809 10.308 7.70809 10.308C7.70809 10.308 7.70808 10.308 7.70808 10.308C7.70806 10.308 7.70804 10.3081 7.70802 10.3081C7.70797 10.3081 7.70789 10.3082 7.70779 10.3083C7.70759 10.3085 7.70726 10.3088 7.70686 10.3092C7.70607 10.31 7.70476 10.3113 7.70313 10.3129C7.69993 10.316 7.69463 10.321 7.68783 10.327C7.67423 10.339 7.65218 10.3571 7.62233 10.375C7.60728 10.384 7.59049 10.3929 7.57196 10.401C7.55339 10.4091 7.53381 10.4162 7.51331 10.4219C7.49282 10.4277 7.47227 10.4318 7.45185 10.4345C7.43148 10.4373 7.41187 10.4384 7.39325 10.4384V9.54811C7.37465 9.54811 7.35505 9.54928 7.33469 9.55198C7.31428 9.55469 7.29373 9.55886 7.27325 9.56459C7.25275 9.57033 7.23318 9.5774 7.21462 9.58553C7.1961 9.59365 7.17932 9.60251 7.16427 9.61153C7.13443 9.62944 7.11239 9.64745 7.0988 9.65944C7.09201 9.66543 7.08671 9.67048 7.08352 9.67357C7.08061 9.67639 7.07816 9.67886 7.07857 9.67844C7.07857 9.67844 7.07857 9.67844 7.07858 9.67844C7.07858 9.67844 7.07859 9.67843 7.07859 9.67842C7.0786 9.67841 7.07862 9.67839 7.07865 9.67837C7.0787 9.67832 7.07878 9.67824 7.07888 9.67814C7.07908 9.67794 7.0794 9.67761 7.07981 9.67721C7.0806 9.67643 7.0819 9.67514 7.08353 9.67356C7.08673 9.67046 7.09204 9.6654 7.09883 9.65941C7.11243 9.64741 7.13448 9.62939 7.16434 9.61148C7.17939 9.60245 7.19618 9.59359 7.21471 9.58547C7.23327 9.57733 7.25285 9.57026 7.27336 9.56452C7.29385 9.55878 7.3144 9.55461 7.33482 9.5519C7.35519 9.5492 7.37479 9.54803 7.39341 9.54803V10.4383ZM7.39325 10.4384H7.39318V9.54811H7.39325V10.4384ZM7.62219 10.375L6.16748 11.2477L5.70946 10.4843L7.16417 9.61154L7.62219 10.375ZM6.16795 11.2474C5.89726 11.4103 5.5462 11.3224 5.38415 11.0515L6.14812 10.5944C6.05733 10.4426 5.86044 10.3934 5.709 10.4845L6.16795 11.2474ZM5.3845 11.0521C5.22199 10.7815 5.31025 10.4312 5.57976 10.2691L6.03856 11.0321C6.1893 10.9415 6.23886 10.7455 6.14776 10.5938L5.3845 11.0521ZM5.58016 10.2689L7.03494 9.39616L7.49294 10.1596L6.03816 11.0324L5.58016 10.2689ZM7.03474 9.39629C6.98516 9.42606 6.94772 9.47568 6.93319 9.53372L7.79685 9.74992C7.75369 9.92233 7.64435 10.0687 7.49314 10.1595L7.03474 9.39629ZM6.93322 9.5336C6.91723 9.59737 6.93106 9.66474 6.96562 9.71462L7.69739 9.20751C7.80653 9.36499 7.84426 9.56073 7.79682 9.75004L6.93322 9.5336ZM6.96534 9.71421C7.00849 9.77663 7.0679 9.80453 7.11388 9.8128C7.15995 9.82109 7.20928 9.81353 7.253 9.78725L6.79444 9.02412C7.07611 8.85487 7.48383 8.89859 7.69768 9.20792L6.96534 9.71421ZM7.25273 9.78742L5.02845 11.1218L4.57044 10.3583L6.79472 9.02396L7.25273 9.78742ZM5.02783 11.1222C4.80709 11.2541 4.52432 11.2224 4.33838 11.0429L4.95672 10.4024C4.85244 10.3017 4.69441 10.2842 4.57105 10.358L5.02783 11.1222ZM4.33837 11.0429C4.15228 10.8633 4.11053 10.5812 4.2357 10.3556L5.01426 10.7874C5.08437 10.661 5.06103 10.5031 4.95673 10.4024L4.33837 11.0429ZM4.23576 10.3555L4.69827 9.52215L5.47671 9.95421L5.0142 10.7875L4.23576 10.3555ZM4.69862 9.52153C4.66687 9.57851 4.66909 9.64559 4.70093 9.69864L5.46431 9.24048C5.59509 9.4584 5.60093 9.73125 5.47637 9.95484L4.69862 9.52153ZM4.72733 9.20135L4.72735 9.20132L5.43793 9.73774L5.4379 9.73777L4.72733 9.20135Z" fill="#4CAF4F" mask="url(#path-3-inside-2_20_2668)"/>
<path d="M9.3968 9.54076C9.36207 9.54105 9.32714 9.54544 9.29268 9.55406L9.3968 9.54076ZM9.3968 9.54076C9.39746 9.53119 9.3983 9.52161 9.39933 9.51203L9.3968 9.54076ZM8.99318 10.5499C8.99316 10.5499 8.99315 10.5499 8.99313 10.5499C8.99313 10.5499 8.99313 10.5499 8.99313 10.5499L8.99318 10.5499ZM8.99318 10.5499L8.96867 10.5351L8.99319 10.5498M8.99318 10.5499L8.99319 10.5498M8.99319 10.5498C8.99373 10.5489 8.99427 10.5481 8.99481 10.5472L8.99319 10.5498ZM10.6997 11.8655L10.6998 11.8656L10.6997 11.8655Z" fill="#4CAF4F" stroke="#4CAF4F" stroke-width="0.445155"/>
</svg>
