<svg width="23" height="20" viewBox="0 0 23 20" fill="none" xmlns="http://www.w3.org/2000/svg">
<path d="M22.6287 13.4074C22.6287 16.7264 19.9381 19.417 16.6191 19.417L7.60467 19.417C6.68272 19.417 5.93534 18.6696 5.93534 17.7477L5.93534 6.39619C5.93534 4.5523 7.43011 3.05753 9.274 3.05753L20.9593 3.05753C21.8813 3.05753 22.6287 3.80492 22.6287 4.72686L22.6287 13.4074Z" fill="#E8F5E9"/>
<path d="M10.3797 8.61545C10.2993 8.61545 10.2246 8.59335 10.1583 8.5578V8.55874C10.1583 8.68522 10.1092 8.804 10.02 8.89297C9.93078 8.98216 9.81209 9.03133 9.68575 9.03133C9.60419 9.03133 9.5286 9.00867 9.46157 8.97217C9.45481 9.08788 9.40856 9.19603 9.32605 9.27863C9.23685 9.36783 9.11816 9.41699 8.99174 9.41699C8.74058 9.41699 8.53661 9.21956 8.52191 8.9721C8.4442 9.0141 8.35634 9.03612 8.26572 9.0303C8.01864 9.0141 7.82515 8.80063 7.82515 8.54419V6.41858L7.58311 6.8379C7.49092 6.99828 7.31836 7.09786 7.13256 7.09786C7.04202 7.09786 6.95259 7.07411 6.87338 7.02872C6.77474 6.97154 6.70419 6.87974 6.67484 6.76993C6.64535 6.66004 6.66061 6.54512 6.71763 6.44664C6.71771 6.44664 7.50956 5.07538 7.55787 4.99115C7.56361 4.97848 7.57998 4.94175 7.5939 4.91044C7.60719 4.88055 7.6186 4.84988 7.62953 4.81904C7.86833 4.14487 8.45962 3.72609 9.17273 3.72609C10.0988 3.72609 10.8522 4.54303 10.8522 5.5472L10.8522 8.1428C10.8522 8.26912 10.8032 8.38782 10.714 8.4771C10.6248 8.5663 10.5061 8.61546 10.3797 8.61546L10.3797 8.61545ZM9.17274 3.97721C8.55998 3.97721 8.07159 4.32332 7.86622 4.90303C7.85309 4.93984 7.8394 4.97665 7.82343 5.01252C7.7771 5.11643 7.7771 5.11643 7.76404 5.13137L7.76231 5.12987C7.69766 5.25187 7.50557 5.58452 6.93507 6.57231C6.91163 6.61282 6.90541 6.65986 6.91737 6.70485C6.92948 6.74984 6.95851 6.78776 6.9987 6.81096C7.12345 6.88262 7.2943 6.83637 7.36541 6.71248L7.842 5.88735C7.87047 5.83819 7.92805 5.81404 7.98327 5.82898C8.03817 5.84369 8.07632 5.89348 8.07632 5.95027V8.54426C8.07632 8.66665 8.16866 8.77229 8.28218 8.77976C8.34762 8.78322 8.40866 8.76127 8.45452 8.71549C8.49621 8.6738 8.51917 8.61827 8.51917 8.55889V6.86238C8.51917 6.79301 8.57541 6.73677 8.64479 6.73677C8.71417 6.73677 8.77041 6.79293 8.77041 6.86238L8.77033 8.9445C8.77033 9.06658 8.86967 9.16592 8.99175 9.16592C9.05106 9.16592 9.10675 9.14295 9.14852 9.10126C9.19021 9.0595 9.21317 9.00381 9.21317 8.9445V6.86238C9.21317 6.79301 9.26934 6.73676 9.33879 6.73676C9.40817 6.73676 9.46441 6.79293 9.46441 6.86238L9.46433 8.53937V8.55888C9.46433 8.68088 9.56368 8.78022 9.68583 8.78022C9.74506 8.78022 9.80059 8.75717 9.8426 8.71532C9.88429 8.67371 9.90725 8.61818 9.90725 8.5588V6.86229C9.90725 6.79292 9.96342 6.73668 10.0329 6.73668C10.1022 6.73668 10.1585 6.79284 10.1585 6.86229L10.1583 8.14286C10.1583 8.26501 10.2577 8.36436 10.3797 8.36436C10.4391 8.36436 10.4946 8.34131 10.5363 8.2997C10.5781 8.25786 10.601 8.20216 10.601 8.14286L10.6011 5.54726C10.6011 4.68163 9.96035 3.97723 9.17273 3.97723L9.17274 3.97721Z" fill="#103E13"/>
<path d="M5.44427 10.4186L7.26708 9.32506C7.48685 9.19307 7.76963 9.24916 7.91058 9.4528C7.96203 9.52698 7.9883 9.61342 7.99239 9.70145C8.06035 9.66597 8.13429 9.6467 8.20956 9.6467C8.2481 9.6467 8.2868 9.6515 8.32503 9.66102C8.4475 9.69162 8.5507 9.76815 8.6156 9.87638C8.68057 9.98477 8.69953 10.1118 8.66893 10.2341C8.64069 10.3473 8.57187 10.4426 8.47614 10.5079C8.54308 10.5474 8.60081 10.6013 8.64187 10.6699C8.70685 10.7783 8.7258 10.9053 8.69528 11.0277C8.66468 11.15 8.58815 11.2532 8.47976 11.3183L8.47913 11.3187C8.54489 11.3581 8.6016 11.4114 8.64219 11.479C8.70724 11.5874 8.7262 11.7144 8.6956 11.8369C8.66492 11.9593 8.58839 12.0625 8.48016 12.1274L6.25447 13.4627C5.83907 13.7118 5.35886 13.7978 4.90249 13.7046C4.44202 13.6105 4.06068 13.3458 3.82881 12.9593C3.46186 12.3477 3.51685 11.6251 3.97204 11.0737C3.99289 11.0485 4.01342 11.0229 4.03206 10.9963C4.0518 10.9682 4.07485 10.9351 4.08272 10.9238C4.12983 10.8397 4.89865 9.45448 4.89857 9.45464C4.9762 9.31455 5.12172 9.23525 5.2718 9.23533C5.3418 9.23533 5.41283 9.25256 5.47836 9.2889C5.55749 9.3331 5.62395 9.39752 5.67044 9.47516C5.76601 9.63444 5.76939 9.83377 5.67941 9.99509L5.44427 10.4186ZM5.4552 9.60429C5.43082 9.56363 5.39731 9.53122 5.35632 9.50825C5.27161 9.46137 5.16495 9.49189 5.11831 9.57629C4.56818 10.5674 4.38065 10.9051 4.30828 11.0253L4.30993 11.0257C4.30387 11.0459 4.30387 11.0459 4.23765 11.1405C4.21515 11.1725 4.19069 11.2033 4.16575 11.2335C3.77434 11.7078 3.72889 12.3046 4.04407 12.8301C4.2393 13.1556 4.56196 13.3787 4.95265 13.4585C5.34758 13.5388 5.76385 13.4641 6.12513 13.2473L8.35102 11.912C8.40184 11.8815 8.43771 11.8332 8.45202 11.7758C8.46634 11.7186 8.45745 11.659 8.42693 11.6082C8.36416 11.5036 8.22785 11.4692 8.12323 11.5322L7.02517 12.191C6.9657 12.2267 6.88846 12.2075 6.85283 12.148C6.81712 12.0885 6.83639 12.0113 6.89585 11.9756L7.994 11.3169L8.35063 11.1029C8.40145 11.0724 8.43739 11.024 8.45171 10.9668C8.46602 10.9095 8.45714 10.8499 8.42662 10.7991C8.36377 10.6944 8.22745 10.6604 8.12292 10.7231L6.66814 11.5959C6.60851 11.6317 6.53151 11.6123 6.4958 11.5528C6.46009 11.4934 6.47943 11.4162 6.53882 11.3805L8.32429 10.3094C8.3751 10.2789 8.41097 10.2306 8.42528 10.1733C8.4396 10.116 8.43071 10.0565 8.40027 10.0056C8.36983 9.9549 8.32145 9.91903 8.26411 9.90472C8.20645 9.8904 8.14715 9.89929 8.09649 9.92965L7.76597 10.128C7.76589 10.128 7.76589 10.128 7.76581 10.128H7.76573L6.31103 11.0007C6.25141 11.0366 6.17432 11.0173 6.13869 10.9577C6.10298 10.8983 6.12233 10.8211 6.18172 10.7854L7.6365 9.91267C7.68731 9.88215 7.72326 9.83377 7.73758 9.77659C7.75331 9.71382 7.74135 9.64963 7.70407 9.59583C7.63941 9.50231 7.50113 9.47745 7.39628 9.54045L5.172 10.8748C5.12331 10.9039 5.06094 10.8968 5.02011 10.8574C4.97921 10.818 4.97001 10.7559 4.99754 10.7063L5.46005 9.87295C5.50646 9.78965 5.50465 9.68676 5.45517 9.60433L5.4552 9.60429Z" fill="#103E13"/>
<path d="M14.1547 12.9593C13.9229 13.3459 13.5416 13.6105 13.0811 13.7046C12.6246 13.7977 12.1446 13.7119 11.7291 13.4627L9.50319 12.1275C9.39488 12.0625 9.31827 11.9593 9.28759 11.8367C9.25715 11.7144 9.27619 11.5874 9.34108 11.4791C9.38159 11.4115 9.43838 11.3582 9.50422 11.3188L9.50359 11.3184C9.39527 11.2534 9.31866 11.1502 9.28815 11.0278C9.25747 10.9054 9.2765 10.7783 9.34148 10.6699C9.38332 10.6003 9.44066 10.5459 9.50611 10.5072C9.41109 10.4419 9.34266 10.3469 9.3145 10.2343C9.28382 10.1118 9.30286 9.98478 9.36783 9.87654C9.43272 9.76823 9.536 9.6917 9.6584 9.6611C9.69662 9.65151 9.7354 9.64679 9.77379 9.64679C9.84914 9.64687 9.92308 9.66598 9.99104 9.70154C9.99521 9.61352 10.0214 9.52707 10.0728 9.45289C10.2139 9.24941 10.4964 9.19309 10.7165 9.32515L12.5393 10.4185L12.3043 9.99531C12.2142 9.83375 12.2175 9.63442 12.313 9.47506C12.3596 9.39751 12.4262 9.33309 12.5057 9.28849C12.571 9.2523 12.6418 9.23516 12.7117 9.23516C12.8617 9.23524 13.0074 9.31437 13.0849 9.45446C13.3552 9.94145 13.8652 10.8599 13.9011 10.924C13.9087 10.9351 13.9317 10.9681 13.9515 10.9962C13.9703 11.0228 13.9906 11.0483 14.0116 11.0737C14.4667 11.6254 14.5216 12.3478 14.1547 12.9593L14.1547 12.9593ZM13.8178 11.2337C13.7928 11.2035 13.7682 11.1725 13.7459 11.1407C13.6779 11.0442 13.6762 11.0417 13.6711 11.0165C13.5916 10.885 13.3978 10.5361 12.8651 9.57632C12.8184 9.49207 12.7122 9.46132 12.6276 9.50804C12.586 9.53132 12.5526 9.56381 12.5282 9.60448C12.4788 9.68683 12.4769 9.78972 12.5235 9.87326L12.9859 10.7063C13.0135 10.756 13.0043 10.818 12.9635 10.8575C12.9227 10.8971 12.8604 10.904 12.8115 10.8749L10.5872 9.54053C10.4824 9.47768 10.3442 9.5023 10.2794 9.5959C10.2421 9.6497 10.2302 9.71389 10.2458 9.77658C10.2601 9.83384 10.296 9.88214 10.3469 9.91266C10.3471 9.91274 10.3472 9.91289 10.3473 9.91297L11.8016 10.7854C11.8611 10.8212 11.8804 10.8982 11.8447 10.9578C11.809 11.0172 11.732 11.0366 11.6723 11.0008L9.88687 9.92973C9.83621 9.89937 9.77659 9.8904 9.71933 9.9048C9.66191 9.91911 9.61361 9.95498 9.58317 10.0059C9.55265 10.0566 9.54384 10.1162 9.558 10.1734C9.57232 10.2307 9.60826 10.2791 9.65907 10.3096L10.0065 10.5179L11.4445 11.3807C11.5039 11.4164 11.5232 11.4935 11.4875 11.553C11.4518 11.6124 11.3748 11.6318 11.3151 11.596L9.86052 10.7233C9.75591 10.6604 9.61967 10.6945 9.55674 10.7993C9.52622 10.8501 9.51741 10.9097 9.53157 10.9669C9.54589 11.0242 9.58184 11.0725 9.63273 11.1031L9.98936 11.317L11.0873 11.9758C11.1468 12.0115 11.1661 12.0886 11.1304 12.1481C11.0947 12.2075 11.0177 12.227 10.958 12.1912L9.86005 11.5324C9.80939 11.502 9.75001 11.4931 9.69243 11.5075C9.63516 11.5218 9.58671 11.5576 9.55627 11.6084C9.52583 11.6592 9.51694 11.7188 9.5311 11.776C9.54542 11.8333 9.58136 11.8816 9.63226 11.9122L11.8581 13.2475C12.2194 13.4642 12.6359 13.5392 13.0306 13.4586C13.4212 13.3789 13.7439 13.1557 13.9391 12.8302C14.2546 12.3046 14.2092 11.7078 13.8179 11.2337L13.8178 11.2337Z" fill="#103E13"/>
</svg>
