<svg width="11" height="12" viewBox="0 0 11 12" fill="none" xmlns="http://www.w3.org/2000/svg">
<path opacity="0.1" fill-rule="evenodd" clip-rule="evenodd" d="M0.0878906 5.72761C0.0878906 2.77738 2.47952 0.385742 5.42976 0.385742C8.37999 0.385742 10.7716 2.77738 10.7716 5.72761C10.7716 8.67784 8.37999 11.0695 5.42976 11.0695C2.47952 11.0695 0.0878906 8.67784 0.0878906 5.72761Z" fill="white"/>
<path fill-rule="evenodd" clip-rule="evenodd" d="M5.43007 2.87891C4.65632 2.87891 4.55922 2.88229 4.25532 2.89612C3.95202 2.91001 3.74499 2.95803 3.56384 3.02848C3.37646 3.10125 3.21751 3.19859 3.05915 3.35701C2.90067 3.51537 2.80333 3.67432 2.73032 3.86164C2.65969 4.04285 2.61162 4.24994 2.59796 4.55312C2.58437 4.85702 2.58081 4.95418 2.58081 5.72793C2.58081 6.50168 2.58425 6.59848 2.59802 6.90238C2.61197 7.20568 2.65999 7.41271 2.73038 7.59386C2.80321 7.78125 2.90055 7.9402 3.05897 8.09856C3.21727 8.25703 3.37622 8.35461 3.56349 8.42738C3.74476 8.49783 3.95184 8.54585 4.25509 8.55974C4.55898 8.57357 4.65603 8.57695 5.42972 8.57695C6.20352 8.57695 6.30033 8.57357 6.60423 8.55974C6.90753 8.54585 7.1148 8.49783 7.29606 8.42738C7.48339 8.35461 7.6421 8.25703 7.8004 8.09856C7.95888 7.9402 8.05622 7.78125 8.12923 7.59392C8.19926 7.41271 8.24734 7.20562 8.26159 6.90244C8.27524 6.59854 8.2788 6.50168 8.2788 5.72793C8.2788 4.95418 8.27524 4.85708 8.26159 4.55318C8.24734 4.24988 8.19926 4.04285 8.12923 3.8617C8.05622 3.67432 7.95888 3.51537 7.8004 3.35701C7.64192 3.19853 7.48345 3.10119 7.29589 3.02848C7.11426 2.95803 6.90711 2.91001 6.60381 2.89612C6.29991 2.88229 6.20317 2.87891 5.42918 2.87891H5.43007ZM5.17448 3.39232C5.25033 3.3922 5.33497 3.39232 5.43006 3.39232C6.19075 3.39232 6.28091 3.39505 6.5813 3.4087C6.85908 3.4214 7.00984 3.46782 7.11027 3.50681C7.24323 3.55845 7.33802 3.62018 7.43767 3.71989C7.53739 3.81961 7.59912 3.91458 7.65087 4.04753C7.68987 4.14784 7.73634 4.2986 7.74899 4.57638C7.76264 4.87672 7.76561 4.96694 7.76561 5.72727C7.76561 6.4876 7.76264 6.57782 7.74899 6.87816C7.73629 7.15594 7.68987 7.3067 7.65087 7.40701C7.59924 7.53996 7.53739 7.63463 7.43767 7.73429C7.33796 7.834 7.24329 7.89573 7.11027 7.94737C7.00996 7.98655 6.85908 8.03284 6.5813 8.04554C6.28097 8.0592 6.19075 8.06216 5.43006 8.06216C4.66931 8.06216 4.57915 8.0592 4.27882 8.04554C4.00104 8.03272 3.85028 7.98631 3.74979 7.94731C3.61683 7.89567 3.52187 7.83394 3.42215 7.73423C3.32243 7.63451 3.26071 7.53978 3.20895 7.40677C3.16995 7.30646 3.12348 7.1557 3.11084 6.87792C3.09718 6.57758 3.09445 6.48737 3.09445 5.72656C3.09445 4.96575 3.09718 4.876 3.11084 4.57567C3.12354 4.29789 3.16995 4.14713 3.20895 4.0467C3.26059 3.91375 3.32243 3.81878 3.42215 3.71906C3.52187 3.61935 3.61683 3.55762 3.74979 3.50586C3.85022 3.46669 4.00104 3.42039 4.27882 3.40763C4.54164 3.39576 4.64349 3.3922 5.17448 3.3916V3.39232ZM6.95085 3.86537C6.7621 3.86537 6.60896 4.01833 6.60896 4.20714C6.60896 4.39589 6.7621 4.54902 6.95085 4.54902C7.13959 4.54902 7.29273 4.39589 7.29273 4.20714C7.29273 4.01839 7.13959 3.86537 6.95085 3.86537ZM5.43008 4.26483C4.62208 4.26483 3.96698 4.91993 3.96698 5.72792C3.96698 6.53592 4.62208 7.19072 5.43008 7.19072C6.23807 7.19072 6.89293 6.53592 6.89293 5.72792C6.89293 4.91993 6.23807 4.26483 5.43008 4.26483ZM5.43007 4.77825C5.95452 4.77825 6.37974 5.20341 6.37974 5.72792C6.37974 6.25238 5.95452 6.6776 5.43007 6.6776C4.90555 6.6776 4.48039 6.25238 4.48039 5.72792C4.48039 5.20341 4.90555 4.77825 5.43007 4.77825Z" fill="white"/>
</svg>
