<svg width="17" height="17" viewBox="0 0 17 17" fill="none" xmlns="http://www.w3.org/2000/svg">
<g clip-path="url(#clip0_17_14212)">
<path d="M1.73773 8.5589L1.63277 8.62733L1.57958 8.66154L1.5652 8.67152L1.53069 8.69718C1.5066 8.71585 1.48401 8.73635 1.46311 8.75848C1.42168 8.80065 1.38679 8.84869 1.35959 8.90103C1.34649 8.92822 1.33543 8.95633 1.32652 8.98514C1.32652 8.9994 1.3179 9.01365 1.31502 9.02933V9.05072L1.29058 9.17332L1.24026 9.41709L1.03465 10.3907L1.01021 10.5105C0.987318 10.6237 1.00317 10.7413 1.05525 10.8445C1.10734 10.9478 1.19268 11.0309 1.29777 11.0807C1.33215 11.0975 1.36832 11.1104 1.4056 11.1192L1.4473 11.1278L1.56807 11.152L2.04542 11.2461L2.98573 11.43H2.99436C3.08463 11.4478 3.17834 11.4304 3.25604 11.3815L3.75207 11.0508H3.7607C3.83563 10.9989 3.88721 10.9202 3.90448 10.8312L4.02238 10.251L4.05689 10.0814L4.48822 10.1627C4.59561 10.1836 4.70662 10.1774 4.81093 10.1445C4.91524 10.1116 5.00948 10.0531 5.0849 9.97448C5.15862 9.89699 5.21152 9.80239 5.23875 9.69935L5.24737 9.66086V9.6409V9.60241L5.26175 9.52685L5.31783 9.22891L5.32645 9.17902L5.57375 9.22036L6.11149 9.30874H6.12874C6.19586 9.31949 6.26455 9.30362 6.31996 9.26455L6.86201 8.88535C7.04184 8.98494 7.2305 9.06797 7.42562 9.1334C7.53638 9.17221 7.64917 9.20505 7.7635 9.23176C7.87233 9.25623 7.98288 9.27244 8.0942 9.28023H8.12151C8.17746 9.42699 8.24327 9.56987 8.31849 9.7079L6.18337 12.6902L5.89582 13.0979L5.84981 13.1635C5.78264 13.2669 5.74949 13.3884 5.75491 13.5113C5.75491 13.527 5.75491 13.5412 5.75491 13.5569V13.5925V13.6239L5.79805 13.8705L5.98783 14.8599L6.0094 14.9839L6.0209 15.0452V15.0609C6.0209 15.078 6.02809 15.0994 6.03384 15.1179C6.06812 15.2346 6.14181 15.3362 6.24259 15.4055C6.34337 15.4748 6.4651 15.5076 6.58739 15.4985H6.64059H6.65641L6.71823 15.4871L7.21571 15.4002L8.20778 15.2262C8.25946 15.2162 8.30854 15.1959 8.35204 15.1665C8.39554 15.1371 8.43256 15.0992 8.46083 15.0552L8.80303 14.569C8.86135 14.4861 8.8841 14.3835 8.86629 14.2839L8.76708 13.7052L8.74408 13.5626L9.15097 13.5013C9.32266 13.4719 9.477 13.3798 9.58349 13.2431C9.68997 13.1063 9.74086 12.935 9.72608 12.7629V12.7215V12.693V12.656L9.71315 12.5818L9.65995 12.2882L9.82961 12.2554L10.3832 12.147H10.3903C10.4805 12.1301 10.5605 12.079 10.6132 12.0045L10.9511 11.5169C11.6736 11.6232 12.4116 11.5078 13.0661 11.1862C13.7069 10.8603 14.231 10.3466 14.5671 9.71503C14.868 9.17784 15.017 8.57008 14.9985 7.95589C14.9827 7.45794 14.8519 6.97021 14.616 6.53033C14.6036 6.50795 14.5866 6.48837 14.5662 6.47285C14.5458 6.45732 14.5223 6.44619 14.4973 6.44015C14.4722 6.43412 14.4462 6.43332 14.4209 6.4378C14.3955 6.44228 14.3714 6.45195 14.35 6.46618C14.3116 6.48903 14.2825 6.52452 14.2678 6.56647C14.2531 6.60841 14.2537 6.65415 14.2695 6.6957C14.4401 7.09473 14.522 7.52552 14.5096 7.95874C14.4933 8.47958 14.3402 8.98718 14.0653 9.43134C13.7435 9.96802 13.2567 10.3884 12.6763 10.6308C12.096 10.8732 11.4525 10.925 10.8404 10.7785C10.773 10.7622 10.7022 10.7662 10.6371 10.7901C10.572 10.814 10.5156 10.8566 10.4752 10.9125V10.9196L10.0812 11.4628L9.67145 11.5355L9.38389 11.5854L9.24011 11.611H9.22286H9.1941L9.15097 11.6238C9.04798 11.6584 8.96048 11.7277 8.90373 11.8197C8.84698 11.9116 8.82457 12.0204 8.84041 12.1271V12.1542L8.86341 12.2041L8.87491 12.2768L8.89936 12.4193L8.94824 12.713L8.95831 12.7714L8.33431 12.8755C8.2114 12.8968 8.1018 12.965 8.02898 13.0654C7.95615 13.1659 7.92589 13.2906 7.94466 13.4129L7.96911 13.5555L8.01512 13.8406L8.08413 14.2597L7.91447 14.4849L7.08055 14.6275L6.75418 14.6831L6.58739 13.7408L6.55001 13.5341L6.82463 13.1449L9.06614 9.94312C9.10694 9.88309 9.12873 9.81236 9.12873 9.73997C9.12873 9.66759 9.10694 9.59686 9.06614 9.53683C8.6503 8.90436 8.49967 8.13601 8.64627 7.39514C8.79287 6.65427 9.22514 5.99931 9.85117 5.5695C10.3738 5.20948 10.9978 5.02238 11.634 5.03492C12.1042 5.04045 12.5669 5.15209 12.987 5.36137C12.7713 5.66929 12.5858 5.94728 12.4378 6.18677C12.1819 6.07334 11.8922 6.0601 11.6268 6.14971C11.4747 6.20136 11.3362 6.28619 11.2215 6.39795C11.1067 6.50971 11.0188 6.64556 10.964 6.79549C10.9186 6.91944 10.8987 7.05114 10.9053 7.18285C10.912 7.31456 10.9451 7.44361 11.0028 7.56243C11.0852 7.73517 11.2255 7.87423 11.3997 7.95589C11.4198 7.96587 11.4874 7.89744 11.5434 7.80621C11.585 7.7578 11.6171 7.70223 11.6383 7.64227C11.5845 7.55916 11.5501 7.46514 11.5377 7.36713C11.5247 7.26521 11.5449 7.16185 11.5952 7.07204C11.6232 7.02548 11.6603 6.98487 11.7042 6.95257C11.7481 6.92028 11.7981 6.89692 11.8511 6.88387C11.9041 6.87071 11.9594 6.869 12.0131 6.87886C12.0668 6.88872 12.1177 6.90992 12.1625 6.94102C12.2072 6.97211 12.2446 7.01238 12.2723 7.05909C12.3 7.10581 12.3172 7.15787 12.3227 7.21175C12.3289 7.26602 12.3241 7.32097 12.3086 7.37337C12.293 7.42576 12.267 7.47454 12.2322 7.51682C12.1625 7.60113 12.0663 7.65986 11.959 7.68361C11.861 7.70563 11.7593 7.70563 11.6613 7.68361C11.6073 7.72752 11.5615 7.78062 11.5262 7.84042C11.4701 7.91882 11.4385 7.98297 11.4529 8.00293C11.5882 8.13787 11.7666 8.22202 11.9575 8.241C12.0896 8.25503 12.2231 8.24271 12.3503 8.20476C12.4775 8.16681 12.5957 8.104 12.698 8.02004C12.8218 7.91884 12.9211 7.79136 12.9885 7.64702C13.056 7.50267 13.0898 7.34515 13.0876 7.18609C13.0842 6.92296 12.9852 6.66988 12.8087 6.47331C13.0963 6.1882 13.4485 5.79759 13.8353 5.35425C13.8669 5.31718 13.8957 5.28582 13.9302 5.24163L14.0337 5.09907C14.0686 5.05376 14.1003 5.00613 14.1286 4.95652C14.1602 4.90632 14.189 4.85445 14.2149 4.80113C14.3838 4.46038 14.4642 4.08321 14.4489 3.70383C14.4336 3.32445 14.323 2.95486 14.1272 2.62858C13.9964 2.40436 13.8265 2.205 13.6254 2.03982C13.4305 1.87554 13.2094 1.7445 12.9712 1.65207C12.5214 1.47952 12.028 1.45306 11.5621 1.57652C11.1701 1.67956 10.8149 1.88944 10.537 2.18238C10.3573 2.37911 10.2092 2.55445 10.0855 2.70699C9.5723 2.47834 9.01106 2.37565 8.44933 2.40762C7.96741 2.43558 7.49621 2.56016 7.06423 2.77382C6.63225 2.98748 6.24846 3.28579 5.93607 3.6507C5.59877 4.0506 5.35345 4.51859 5.21718 5.02209C5.14789 5.28118 5.10691 5.54692 5.09497 5.8147C5.08939 5.99891 5.09708 6.18327 5.11797 6.36639C4.07558 7.0364 3.0073 7.72922 1.95484 8.41777L1.73773 8.5589ZM10.9252 2.59437C11.1576 2.41398 11.4311 2.29306 11.7217 2.24225C12.0477 2.18449 12.3836 2.22265 12.6879 2.35202C12.8452 2.42099 12.9908 2.51381 13.1193 2.62715C13.2515 2.73902 13.3634 2.87259 13.45 3.02203C13.6274 3.31984 13.7059 3.66546 13.6743 4.00994C13.6577 4.1755 13.617 4.3378 13.5535 4.49178C13.5379 4.52937 13.5202 4.56602 13.5003 4.60155C13.484 4.63866 13.4648 4.67442 13.4428 4.70847L13.3781 4.80968C13.3565 4.8439 13.3234 4.88666 13.2976 4.92373L13.2185 5.0335C12.8041 4.77342 12.3375 4.60606 11.8511 4.5431C11.6214 3.96501 11.2341 3.46159 10.7325 3.08903C10.6563 3.03201 10.5758 2.97784 10.4924 2.9251C10.629 2.82816 10.7714 2.71696 10.9252 2.59437ZM2.38042 9.06782C3.50909 8.33794 4.64638 7.59522 5.74341 6.87246C5.80693 6.83072 5.85636 6.77105 5.88532 6.70117C5.91428 6.63129 5.92144 6.5544 5.90588 6.48044C5.82276 6.06676 5.83194 5.64006 5.93278 5.23027C6.03362 4.82048 6.22368 4.43754 6.48962 4.10831C6.74453 3.8013 7.05951 3.54865 7.41556 3.36559C7.75171 3.19075 8.11892 3.0823 8.49678 3.04627C9.17794 2.98237 9.8608 3.14974 10.4335 3.52098C10.8251 3.77836 11.1538 4.11931 11.3954 4.51887C10.7325 4.5217 10.0842 4.71158 9.52623 5.06628C8.77492 5.54062 8.23053 6.27726 8.00074 7.13049C7.85781 7.6977 7.85781 8.29106 8.00074 8.85827C7.96192 8.84829 7.9231 8.83688 7.88428 8.82405C7.79514 8.79412 7.69737 8.75563 7.59672 8.71286C7.39333 8.62049 7.20052 8.50674 7.0216 8.37358C6.98277 8.3448 6.93614 8.32821 6.88771 8.32592C6.83929 8.32363 6.79128 8.33576 6.74986 8.36075L6.73549 8.3693L6.13161 8.73424L5.70028 8.64016L5.42278 8.58028L5.27901 8.55035L5.24306 8.54322C5.22458 8.53915 5.20585 8.53629 5.18699 8.53466C5.16022 8.53196 5.13324 8.53196 5.10647 8.53466C5.02576 8.54445 4.94996 8.57831 4.88911 8.63177C4.82825 8.68524 4.78522 8.75577 4.76571 8.83403L4.75421 8.88108L4.73696 8.95235L4.70389 9.09491L4.63631 9.39L4.61906 9.46555L4.61043 9.50262L3.95193 9.35293C3.84279 9.33076 3.72923 9.35032 3.63403 9.40769C3.53882 9.46506 3.46903 9.55601 3.43864 9.66228L3.39982 9.82052L3.33512 10.1056L3.23591 10.5333L2.98573 10.6915L2.19495 10.5205L1.81825 10.4321L2.00085 9.57675L2.05261 9.33298L2.06555 9.27595L2.16907 9.21038L2.38042 9.06782Z" fill="#000929"/>
</g>
<defs>
<clipPath id="clip0_17_14212">
<rect width="16.1975" height="16" fill="white" transform="translate(0.13623 0.5)"/>
</clipPath>
</defs>
</svg>
