<svg width="7" height="6" viewBox="0 0 7 6" fill="none" xmlns="http://www.w3.org/2000/svg">
<path fill-rule="evenodd" clip-rule="evenodd" d="M6.34977 0.107527C6.41778 0.175545 6.44083 0.276515 6.40905 0.367306L4.65625 5.3753C4.62233 5.47221 4.5327 5.53859 4.43011 5.54278C4.32753 5.54696 4.23279 5.4881 4.19109 5.39428L3.2286 3.22869L1.06301 2.2662C0.969191 2.22451 0.910331 2.12976 0.914516 2.02718C0.918701 1.9246 0.985083 1.83496 1.08199 1.80104L6.08999 0.0482445C6.18078 0.0164674 6.28175 0.039509 6.34977 0.107527ZM3.71697 3.09444L4.39221 4.61373L5.57388 1.23753L3.71697 3.09444ZM5.21976 0.883411L1.84356 2.06508L3.36285 2.74032L5.21976 0.883411Z" fill="white"/>
</svg>
