<svg width="6" height="5" viewBox="0 0 6 5" fill="none" xmlns="http://www.w3.org/2000/svg">
<path fill-rule="evenodd" clip-rule="evenodd" d="M3.321 1.72764L3.33221 1.91248L3.14539 1.88984C2.46534 1.80308 1.87123 1.50885 1.3668 1.01468L1.12019 0.769483L1.05667 0.950551C0.922154 1.35418 1.00809 1.78045 1.28833 2.06714C1.43779 2.22557 1.40417 2.24821 1.14635 2.1539C1.05667 2.12372 0.978202 2.10109 0.970729 2.11241C0.944573 2.13881 1.03425 2.48209 1.10524 2.61789C1.20239 2.8065 1.40043 2.99134 1.61715 3.10074L1.80024 3.1875L1.58352 3.19127C1.37427 3.19127 1.3668 3.19504 1.38922 3.27426C1.46395 3.51946 1.75914 3.77974 2.08795 3.89291L2.31961 3.97213L2.11784 4.09284C1.81892 4.26636 1.46769 4.36444 1.11645 4.37199C0.94831 4.37576 0.810059 4.39085 0.810059 4.40217C0.810059 4.43989 1.26591 4.65113 1.53121 4.73412C2.32709 4.97932 3.27243 4.8737 3.98237 4.45498C4.4868 4.15697 4.99123 3.56472 5.22663 2.99134C5.35367 2.68579 5.48071 2.1275 5.48071 1.85966C5.48071 1.68614 5.49192 1.66351 5.70117 1.45603C5.82447 1.33532 5.94031 1.20329 5.96273 1.16557C6.00009 1.0939 5.99635 1.0939 5.80579 1.15803C5.48819 1.27119 5.44335 1.2561 5.60028 1.08635C5.71611 0.96564 5.85437 0.746849 5.85437 0.682721C5.85437 0.671404 5.79832 0.690265 5.7348 0.724216C5.66754 0.761938 5.51808 0.818522 5.40598 0.852473L5.20421 0.916601L5.02112 0.792116C4.92024 0.724216 4.77825 0.648771 4.70352 0.626137C4.51295 0.573326 4.2215 0.58087 4.04962 0.641226C3.58256 0.810978 3.28737 1.24856 3.321 1.72764Z" fill="white"/>
</svg>
