<svg width="11" height="12" viewBox="0 0 11 12" fill="none" xmlns="http://www.w3.org/2000/svg">
<path opacity="0.1" fill-rule="evenodd" clip-rule="evenodd" d="M0.164795 5.72761C0.164795 2.77738 2.55643 0.385742 5.50666 0.385742C8.45689 0.385742 10.8485 2.77738 10.8485 5.72761C10.8485 8.67784 8.45689 11.0695 5.50666 11.0695C2.55643 11.0695 0.164795 8.67784 0.164795 5.72761Z" fill="white"/>
<path fill-rule="evenodd" clip-rule="evenodd" d="M7.73284 3.8918C7.97802 3.95908 8.1711 4.15731 8.23663 4.40905C8.3557 4.86529 8.3557 5.81725 8.3557 5.81725C8.3557 5.81725 8.3557 6.76917 8.23663 7.22545C8.1711 7.47718 7.97802 7.67541 7.73284 7.74273C7.28853 7.86496 5.50671 7.86496 5.50671 7.86496C5.50671 7.86496 3.72489 7.86496 3.28054 7.74273C3.03537 7.67541 2.84228 7.47718 2.77676 7.22545C2.65771 6.76917 2.65771 5.81725 2.65771 5.81725C2.65771 5.81725 2.65771 4.86529 2.77676 4.40905C2.84228 4.15731 3.03537 3.95908 3.28054 3.8918C3.72489 3.76953 5.50671 3.76953 5.50671 3.76953C5.50671 3.76953 7.28853 3.76953 7.73284 3.8918ZM4.97253 5.01595V6.79657L6.39703 5.90629L4.97253 5.01595Z" fill="white"/>
</svg>
